<svg xmlns="http://www.w3.org/2000/svg" xmlns:xlink="http://www.w3.org/1999/xlink" width="103" height="103" viewBox="0 0 103 103">
  <defs>
    <filter id="Path_978624" x="0" y="0" width="103" height="103" filterUnits="userSpaceOnUse">
      <feOffset dy="3" input="SourceAlpha"/>
      <feGaussianBlur stdDeviation="3" result="blur"/>
      <feFlood flood-opacity="0.161"/>
      <feComposite operator="in" in2="blur"/>
      <feComposite in="SourceGraphic"/>
    </filter>
  </defs>
  <g id="Group_1164911" data-name="Group 1164911" transform="translate(-195 -5672)">
    <g id="Group_1164443" data-name="Group 1164443" transform="translate(0 1711)">
      <g id="Group_1164323" data-name="Group 1164323" transform="translate(204 3967)">
        <g transform="matrix(1, 0, 0, 1, -9, -6)" filter="url(#Path_978624)">
          <g id="Path_978624-2" data-name="Path 978624" transform="translate(9 6)" fill="#f4fdfe">
            <path d="M 42.5 83.5 C 36.96437835693359 83.5 31.59512901306152 82.41617584228516 26.54141235351562 80.27863311767578 C 21.65934181213379 78.21369171142578 17.27447128295898 75.25723266601562 13.50862312316895 71.49137878417969 C 9.742764472961426 67.72553253173828 6.786305904388428 63.34066009521484 4.721364498138428 58.45858764648438 C 2.583823442459106 53.40486907958984 1.5 48.03562164306641 1.5 42.5 C 1.5 36.96437835693359 2.583823442459106 31.59512901306152 4.721364498138428 26.54141235351562 C 6.786305904388428 21.65934181213379 9.742764472961426 17.27447128295898 13.50862312316895 13.50862312316895 C 17.27447128295898 9.742764472961426 21.65934181213379 6.786305904388428 26.54141235351562 4.721364498138428 C 31.59512901306152 2.583823442459106 36.96437835693359 1.5 42.5 1.5 C 48.03562164306641 1.5 53.40486907958984 2.583823442459106 58.45858764648438 4.721364498138428 C 63.34066009521484 6.786305904388428 67.72553253173828 9.742764472961426 71.49137878417969 13.50862312316895 C 75.25723266601562 17.27447128295898 78.21369171142578 21.65934181213379 80.27863311767578 26.54141235351562 C 82.41617584228516 31.59512901306152 83.5 36.96437835693359 83.5 42.5 C 83.5 48.03562164306641 82.41617584228516 53.40486907958984 80.27863311767578 58.45858764648438 C 78.21369171142578 63.34066009521484 75.25723266601562 67.72553253173828 71.49137878417969 71.49137878417969 C 67.72553253173828 75.25723266601562 63.34066009521484 78.21369171142578 58.45858764648438 80.27863311767578 C 53.40486907958984 82.41617584228516 48.03562164306641 83.5 42.5 83.5 Z" stroke="none"/>
            <path d="M 42.5 3 C 37.16621398925781 3 31.99356079101562 4.043960571289062 27.125732421875 6.102882385253906 C 22.42246627807617 8.092185974121094 18.19785308837891 10.94070434570312 14.56928253173828 14.56928253173828 C 10.94070434570312 18.19785308837891 8.092185974121094 22.42246627807617 6.102882385253906 27.125732421875 C 4.043960571289062 31.99356079101562 3 37.16621398925781 3 42.5 C 3 47.83378601074219 4.043960571289062 53.00643920898438 6.102882385253906 57.87425231933594 C 8.092185974121094 62.57753372192383 10.94070434570312 66.80213165283203 14.56928253173828 70.43071746826172 C 18.19786834716797 74.05929565429688 22.42246627807617 76.90781402587891 27.125732421875 78.89711761474609 C 31.99356079101562 80.95603942871094 37.16621398925781 82 42.5 82 C 47.83378601074219 82 53.00642395019531 80.95603942871094 57.87425231933594 78.89711761474609 C 62.57753372192383 76.90781402587891 66.80213165283203 74.05929565429688 70.43071746826172 70.43071746826172 C 74.05929565429688 66.80213165283203 76.90781402587891 62.57753372192383 78.89711761474609 57.87425231933594 C 80.95603942871094 53.00642395019531 82 47.83378601074219 82 42.5 C 82 37.16621398925781 80.95603942871094 31.99356079101562 78.89711761474609 27.125732421875 C 76.90781402587891 22.42246627807617 74.05929565429688 18.19786834716797 70.43071746826172 14.56928253173828 C 66.80213165283203 10.94070434570312 62.57753372192383 8.092185974121094 57.87425231933594 6.102882385253906 C 53.00643920898438 4.043960571289062 47.83378601074219 3 42.5 3 M 42.5 0 C 65.97209167480469 0 85 19.02789306640625 85 42.5 C 85 65.97209167480469 65.97209167480469 85 42.5 85 C 19.02789306640625 85 0 65.97209167480469 0 42.5 C 0 19.02789306640625 19.02789306640625 0 42.5 0 Z" stroke="none" fill="#56838a"/>
          </g>
        </g>
      </g>
      <g id="transparency_18290514" transform="translate(191.867 3953.277)">
        <g id="Group_1164356" data-name="Group 1164356" transform="translate(26.731 30.191)">
          <path id="Path_982597" data-name="Path 982597" d="M125.153,61.38h34.784a2.862,2.862,0,0,1,2.853,2.857v42.23a2.861,2.861,0,0,1-2.853,2.853H125.153a2.864,2.864,0,0,1-2.853-2.853V64.237A2.864,2.864,0,0,1,125.153,61.38Z" transform="translate(-111.96 -58.489)" fill="#e3c49e" fill-rule="evenodd"/>
          <path id="Path_982598" data-name="Path 982598" d="M172.06,67.7a2.838,2.838,0,0,1,.955,2.125v42.23a2.861,2.861,0,0,1-2.853,2.853H135.376a2.862,2.862,0,0,1-1.516-.436c2.39-10.833,8.921-22.587,19.022-32.689A76.142,76.142,0,0,1,172.06,67.7Z" transform="translate(-122.182 -64.077)" fill="#ffe0b2" fill-rule="evenodd"/>
          <path id="Path_982599" data-name="Path 982599" d="M249.4,257.4l4.533-4.537-8.9-8.9-4.533,4.533Z" transform="translate(-216.484 -219.944)" fill="#0ab69f" fill-rule="evenodd"/>
          <path id="Path_982600" data-name="Path 982600" d="M268.884,255.144l2.279-2.283-8.9-8.9-2.279,2.279Z" transform="translate(-233.71 -219.944)" fill="#0ed2b3" fill-rule="evenodd"/>
          <path id="Path_982601" data-name="Path 982601" d="M38.206,41.666a18.008,18.008,0,1,1,0,25.467A18,18,0,0,1,38.206,41.666Z" transform="translate(-32.93 -36.39)" fill="#0ab69f" fill-rule="evenodd"/>
          <path id="Path_982602" data-name="Path 982602" d="M41.009,41.666A18.01,18.01,0,0,1,71.741,53.729,18.01,18.01,0,0,1,36.1,50.78,17.9,17.9,0,0,1,41.009,41.666Z" transform="translate(-35.733 -36.39)" fill="#0ed2b3" fill-rule="evenodd"/>
          <path id="Path_982603" data-name="Path 982603" d="M74.173,77.639a13.7,13.7,0,1,1,0,19.38A13.709,13.709,0,0,1,74.173,77.639Z" transform="translate(-65.852 -69.319)" fill="#c2c2f0" fill-rule="evenodd"/>
          <path id="Path_982604" data-name="Path 982604" d="M114.021,81.158a13.7,13.7,0,0,1-6.9,26.3,13.7,13.7,0,0,1,6.9-26.3Z" transform="translate(-90.92 -75.873)" fill="#edebfc" fill-rule="evenodd"/>
          <path id="Path_982605" data-name="Path 982605" d="M171.931,125.56a2.181,2.181,0,1,1-2.181,2.181A2.18,2.18,0,0,1,171.931,125.56Z" transform="translate(-153.92 -115.243)" fill="#fdcb0f" fill-rule="evenodd"/>
          <path id="Path_982606" data-name="Path 982606" d="M93.64,185.14h8.577C102.217,191.985,93.64,191.985,93.64,185.14Z" transform="translate(-86.616 -167.929)" fill="#fdcb0f" fill-rule="evenodd"/>
          <path id="Path_982607" data-name="Path 982607" d="M116.49,185.14h5.933c0,2.709-1.344,4.346-2.965,4.909-1.623-.563-2.968-2.2-2.968-4.909Z" transform="translate(-106.822 -167.929)" fill="#fde01b" fill-rule="evenodd"/>
          <path id="Path_982608" data-name="Path 982608" d="M209.41,185.14h8.579C217.989,191.985,209.41,191.985,209.41,185.14Z" transform="translate(-188.991 -167.929)" fill="#fdcb0f" fill-rule="evenodd"/>
          <path id="Path_982609" data-name="Path 982609" d="M232.28,185.14h5.933c0,2.709-1.344,4.346-2.968,4.909-1.623-.563-2.965-2.2-2.965-4.909Z" transform="translate(-209.215 -167.929)" fill="#fde01b" fill-rule="evenodd"/>
          <path id="Path_982610" data-name="Path 982610" d="M308.56,318.609l6.589-6.589,12.227,12.227a4.659,4.659,0,0,1-6.589,6.589Z" transform="translate(-276.669 -280.129)" fill="#0ab69f" fill-rule="evenodd"/>
          <path id="Path_982611" data-name="Path 982611" d="M322.45,317.006l4.982-4.986,12.227,12.227a4.662,4.662,0,0,1,1.319,3.9,4.83,4.83,0,0,1-.37.42,4.669,4.669,0,0,1-6.589,0Z" transform="translate(-288.952 -280.129)" fill="#0ed2b3" fill-rule="evenodd"/>
        </g>
        <path id="Path_982612" data-name="Path 982612" d="M41.144,76.848a.81.81,0,1,1,0-1.62H58.838a.81.81,0,0,1,0,1.62Zm0-5.615a.81.81,0,1,1,0-1.62H54.882a.81.81,0,1,1,0,1.62ZM65.152,38.917a.81.81,0,1,1,0-1.62h8.8a.81.81,0,0,1,0,1.62Zm0,18.894a.81.81,0,1,1,0-1.62h8.8a.81.81,0,0,1,0,1.62Zm1.092-6.3a.81.81,0,1,1,0-1.62h7.707a.81.81,0,0,1,0,1.62Zm0-6.3a.81.81,0,1,1,0-1.62h7.707a.81.81,0,0,1,0,1.62ZM58.048,68.1l.456-.456-3.6-3.6A18.858,18.858,0,0,1,37.88,65.73V78.167a2.053,2.053,0,0,0,2.043,2.047H69.017L58.047,69.246a.814.814,0,0,1,0-1.145Zm6.137-6.137.456-.456a.811.811,0,0,1,1.144,0L76.752,72.479V35.939a2.053,2.053,0,0,0-2.043-2.047H56.97a18.829,18.829,0,0,1,3.614,24.47ZM78.373,74.134A5.459,5.459,0,0,1,79.6,77.6h0a5.471,5.471,0,0,1-8.931,4.231H39.924a3.672,3.672,0,0,1-3.663-3.667V65A18.823,18.823,0,1,1,54.775,32.273H74.709a3.674,3.674,0,0,1,3.663,3.667v38.2ZM65.211,63.226l-5.445,5.445L71.419,80.324A3.844,3.844,0,0,0,77.985,77.6h0a3.842,3.842,0,0,0-1.125-2.722ZM47.15,46.592h.817L50.174,43.5H47.62a3,3,0,0,1-2.07,2.07V56.6h2.142a.81.81,0,1,1,0,1.62h-5.9a.81.81,0,1,1,0-1.62h2.138V45.569a3,3,0,0,1-2.066-2.07H39.308l2.208,3.093h.817a.812.812,0,0,1,.81.81c0,2.821-1.312,4.644-2.994,5.458a4.821,4.821,0,0,1-4.212,0c-1.679-.813-2.994-2.637-2.994-5.458a.812.812,0,0,1,.81-.81h.817L36.776,43.5H35.625a.81.81,0,0,1,0-1.62h6.239a3,3,0,0,1,2.066-2.07V39a.81.81,0,0,1,1.62,0v.813a3,3,0,0,1,2.07,2.07h6.239a.81.81,0,0,1,0,1.62H52.7l2.211,3.093h.813a.81.81,0,0,1,.81.81c0,2.821-1.312,4.644-2.991,5.458a4.821,4.821,0,0,1-4.212,0c-1.682-.813-2.994-2.637-2.994-5.458a.81.81,0,0,1,.809-.81Zm2.8,0h2.978L51.44,44.506Zm4.92,1.62H48.01C48.586,52.9,54.293,52.9,54.871,48.212Zm-18.318-1.62h2.978l-1.489-2.086Zm4.92,1.62H34.611C35.189,52.9,40.9,52.9,41.473,48.212Zm4.237-6.49a1.369,1.369,0,1,0,0,1.935,1.37,1.37,0,0,0,0-1.935ZM34.481,37.936a14.512,14.512,0,1,1,0,20.524A14.51,14.51,0,0,1,34.481,37.936Zm1.144,1.149a12.892,12.892,0,1,0,18.232,0A12.893,12.893,0,0,0,35.625,39.085ZM59.635,59.7A19.219,19.219,0,0,1,56.248,63.1l3.4,3.4,3.388-3.388ZM44.739,31A17.2,17.2,0,1,0,56.9,36.037,17.2,17.2,0,0,0,44.739,31Z" transform="translate(0 0)"/>
      </g>
    </g>
  </g>
</svg>
