<svg xmlns="http://www.w3.org/2000/svg" xmlns:xlink="http://www.w3.org/1999/xlink" width="103" height="103" viewBox="0 0 103 103">
  <defs>
    <filter id="Path_978624" x="0" y="0" width="103" height="103" filterUnits="userSpaceOnUse">
      <feOffset dy="3" input="SourceAlpha"/>
      <feGaussianBlur stdDeviation="3" result="blur"/>
      <feFlood flood-opacity="0.161"/>
      <feComposite operator="in" in2="blur"/>
      <feComposite in="SourceGraphic"/>
    </filter>
  </defs>
  <g id="Group_1164895" data-name="Group 1164895" transform="translate(-171 -843)">
    <g id="Group_1164359" data-name="Group 1164359" transform="translate(180 849)">
      <g id="Group_1144531" data-name="Group 1144531">
        <g transform="matrix(1, 0, 0, 1, -9, -6)" filter="url(#Path_978624)">
          <g id="Path_978624-2" data-name="Path 978624" transform="translate(9 6)" fill="#f6ecaa">
            <path d="M 42.5 83.5 C 36.96437835693359 83.5 31.59512901306152 82.41617584228516 26.54141235351562 80.27863311767578 C 21.65934181213379 78.21369171142578 17.27447128295898 75.25723266601562 13.50862312316895 71.49137878417969 C 9.742764472961426 67.72553253173828 6.786305904388428 63.34066009521484 4.721364498138428 58.45858764648438 C 2.583823442459106 53.40486907958984 1.5 48.03562164306641 1.5 42.5 C 1.5 36.96437835693359 2.583823442459106 31.59512901306152 4.721364498138428 26.54141235351562 C 6.786305904388428 21.65934181213379 9.742764472961426 17.27447128295898 13.50862312316895 13.50862312316895 C 17.27447128295898 9.742764472961426 21.65934181213379 6.786305904388428 26.54141235351562 4.721364498138428 C 31.59512901306152 2.583823442459106 36.96437835693359 1.5 42.5 1.5 C 48.03562164306641 1.5 53.40486907958984 2.583823442459106 58.45858764648438 4.721364498138428 C 63.34066009521484 6.786305904388428 67.72553253173828 9.742764472961426 71.49137878417969 13.50862312316895 C 75.25723266601562 17.27447128295898 78.21369171142578 21.65934181213379 80.27863311767578 26.54141235351562 C 82.41617584228516 31.59512901306152 83.5 36.96437835693359 83.5 42.5 C 83.5 48.03562164306641 82.41617584228516 53.40486907958984 80.27863311767578 58.45858764648438 C 78.21369171142578 63.34066009521484 75.25723266601562 67.72553253173828 71.49137878417969 71.49137878417969 C 67.72553253173828 75.25723266601562 63.34066009521484 78.21369171142578 58.45858764648438 80.27863311767578 C 53.40486907958984 82.41617584228516 48.03562164306641 83.5 42.5 83.5 Z" stroke="none"/>
            <path d="M 42.5 3 C 37.16621398925781 3 31.99356079101562 4.043960571289062 27.125732421875 6.102882385253906 C 22.42246627807617 8.092185974121094 18.19785308837891 10.94070434570312 14.56928253173828 14.56928253173828 C 10.94070434570312 18.19785308837891 8.092185974121094 22.42246627807617 6.102882385253906 27.125732421875 C 4.043960571289062 31.99356079101562 3 37.16621398925781 3 42.5 C 3 47.83378601074219 4.043960571289062 53.00643920898438 6.102882385253906 57.87425231933594 C 8.092185974121094 62.57753372192383 10.94070434570312 66.80213165283203 14.56928253173828 70.43071746826172 C 18.19786834716797 74.05929565429688 22.42246627807617 76.90781402587891 27.125732421875 78.89711761474609 C 31.99356079101562 80.95603942871094 37.16621398925781 82 42.5 82 C 47.83378601074219 82 53.00642395019531 80.95603942871094 57.87425231933594 78.89711761474609 C 62.57753372192383 76.90781402587891 66.80213165283203 74.05929565429688 70.43071746826172 70.43071746826172 C 74.05929565429688 66.80213165283203 76.90781402587891 62.57753372192383 78.89711761474609 57.87425231933594 C 80.95603942871094 53.00642395019531 82 47.83378601074219 82 42.5 C 82 37.16621398925781 80.95603942871094 31.99356079101562 78.89711761474609 27.125732421875 C 76.90781402587891 22.42246627807617 74.05929565429688 18.19786834716797 70.43071746826172 14.56928253173828 C 66.80213165283203 10.94070434570312 62.57753372192383 8.092185974121094 57.87425231933594 6.102882385253906 C 53.00643920898438 4.043960571289062 47.83378601074219 3 42.5 3 M 42.5 0 C 65.97209167480469 0 85 19.02789306640625 85 42.5 C 85 65.97209167480469 65.97209167480469 85 42.5 85 C 19.02789306640625 85 0 65.97209167480469 0 42.5 C 0 19.02789306640625 19.02789306640625 0 42.5 0 Z" stroke="none" fill="#bcac89"/>
          </g>
        </g>
      </g>
      <g id="Filled_outline" data-name="Filled outline" transform="translate(15 13)">
        <path id="Path_982645" data-name="Path 982645" d="M173.594,52.45l-.3,2.721-.2,1.833H147.421l-.2-1.833-.3-2.721a14.1,14.1,0,0,1,1.054-7.112,14.118,14.118,0,0,0,1.123-6.26l-.159-3.172a11.336,11.336,0,1,1,22.644,0l-.159,3.172a14.118,14.118,0,0,0,1.123,6.26A14.1,14.1,0,0,1,173.594,52.45Z" transform="translate(-131.837 -23.088)" fill="#8f4d2e"/>
        <path id="Path_982646" data-name="Path 982646" d="M255.435,52.444l-.3,2.721H244.845V45.082l1.833-3.667V34.082a10.093,10.093,0,0,0-7.418-9.727A11.349,11.349,0,0,1,253.417,35.9l-.159,3.172a14.118,14.118,0,0,0,1.123,6.26A14.1,14.1,0,0,1,255.435,52.444Z" transform="translate(-213.678 -23.082)" fill="#82462a"/>
        <path id="Path_982647" data-name="Path 982647" d="M219.367,223.333a1.283,1.283,0,0,1-1.283-1.283V216H210.75v6.05a1.283,1.283,0,0,1-1.283,1.283H208v5.5h12.833v-5.5Z" transform="translate(-186 -193.083)" fill="#fec9a3"/>
        <path id="Path_982648" data-name="Path 982648" d="M236.219,220.583a5.029,5.029,0,0,0,3.114-1.124V216H232v3.459a5.029,5.029,0,0,0,3.114,1.124Z" transform="translate(-207.25 -193.083)" fill="#feb784"/>
        <path id="Path_982649" data-name="Path 982649" d="M208.5,85.5v4.583a8.25,8.25,0,1,1-16.5,0V85.5a12.436,12.436,0,0,0,4.228-4.79l.355-.71.52.434A22.887,22.887,0,0,0,208.5,85.5Z" transform="translate(-171.833 -72.667)" fill="#fec9a3"/>
        <path id="Path_982650" data-name="Path 982650" d="M284.429,121.528v4.583a8.253,8.253,0,0,1-6.674,8.1,10.047,10.047,0,0,0,3.007-7.183V120.69A22.859,22.859,0,0,0,284.429,121.528Z" transform="translate(-247.763 -108.694)" fill="#fec093"/>
        <path id="Path_982651" data-name="Path 982651" d="M224,312h9.167v6.417H224Z" transform="translate(-200.167 -278.083)" fill="#e0e0de"/>
        <path id="Path_982652" data-name="Path 982652" d="M119.7,303.8a2.782,2.782,0,0,1-3.09-1.846l-6.055-11.359a7.139,7.139,0,0,1-1.279,6.826v7.333h-16.5v-7.333a7.15,7.15,0,0,1-1.265-6.911L85.358,301.95a2.781,2.781,0,1,1-5.281-1.746l6.731-16.753a5.5,5.5,0,0,1,5.1-3.45h3.615l5.5,10.083,5.5-10.083h3.6a5.5,5.5,0,0,1,5.11,3.468l6.654,16.735A2.783,2.783,0,0,1,119.7,303.8Z" transform="translate(-72.609 -249.75)" fill="#ec8c8c"/>
        <path id="Path_982653" data-name="Path 982653" d="M74.16,392.595,74.821,384h5.5v8.831a3.085,3.085,0,1,1-6.161-.237Z" transform="translate(-67.487 -341.833)" fill="#f59898"/>
        <path id="Path_982654" data-name="Path 982654" d="M32.573,266.886a1.783,1.783,0,0,0-1.162,2.527l.839,1.678H28.965a5.5,5.5,0,0,1-2.46-.581l-.913-.457a1.1,1.1,0,0,0-1.592.984v2.587a1.833,1.833,0,0,0,1.013,1.64l1.492.746a5.5,5.5,0,0,0,2.46.581h6.952v-5.5l-1.255-3.138A1.783,1.783,0,0,0,32.573,266.886Z" transform="translate(-23.083 -238.091)" fill="#fec9a3"/>
        <path id="Path_982655" data-name="Path 982655" d="M80,352h5.5v3.667H80Z" transform="translate(-72.667 -313.5)" fill="#e0e0de"/>
        <path id="Path_982656" data-name="Path 982656" d="M221.252,307.55a2.782,2.782,0,0,1-3.09-1.846l-6.055-11.359a7.139,7.139,0,0,1-1.279,6.826V308.5h-16.2c7.566-4.941,13.949-11.211,19.307-24.264a5.491,5.491,0,0,1,2.853,2.983l6.654,16.735a2.783,2.783,0,0,1-2.192,3.592Z" transform="translate(-174.162 -253.504)" fill="#e07f7f"/>
        <path id="Path_982657" data-name="Path 982657" d="M305.167,350.667,296,348.833V336l9.167,1.833Z" transform="translate(-263.917 -299.333)" fill="#a36548"/>
        <path id="Path_982658" data-name="Path 982658" d="M408,350.667l9.167-1.833V336L408,337.833Z" transform="translate(-363.083 -299.333)" fill="#8f4d2e"/>
        <path id="Path_982659" data-name="Path 982659" d="M376,352h3.667v12.833H376Z" transform="translate(-334.75 -313.5)" fill="#95573a"/>
        <path id="Path_982660" data-name="Path 982660" d="M307,316.583a3.246,3.246,0,0,0-2.712-3.2L296,312v2.75l9.167,1.833H307a3.246,3.246,0,0,1,2.712-3.2L318,312v2.75l-9.167,1.833Z" transform="translate(-263.917 -278.083)" fill="#d4bd81"/>
        <path id="Path_982661" data-name="Path 982661" d="M436.734,421.414l-3.667.611a.917.917,0,0,1-1.067-.9v-3.407a1.193,1.193,0,0,1,1-1.177l3.113-.519a1.193,1.193,0,0,1,1.39,1.177v3.315a.917.917,0,0,1-.766.9Z" transform="translate(-384.333 -370.168)" fill="#fec9a3"/>
        <path id="Path_982662" data-name="Path 982662" d="M217.375,136a1.375,1.375,0,1,0,1.375,1.375A1.375,1.375,0,0,0,217.375,136Z" transform="translate(-193.083 -122.25)"/>
        <path id="Path_982663" data-name="Path 982663" d="M289.375,136a1.375,1.375,0,1,0,1.375,1.375A1.375,1.375,0,0,0,289.375,136Z" transform="translate(-256.833 -122.25)"/>
        <path id="Path_982664" data-name="Path 982664" d="M242.75,176.917a.918.918,0,0,1-.917-.917H240a2.75,2.75,0,1,0,5.5,0h-1.833a.918.918,0,0,1-.917.917Z" transform="translate(-214.333 -157.667)"/>
        <path id="Path_982665" data-name="Path 982665" d="M70.676,49.218a.918.918,0,0,0-.743-.2l-8.287,1.381a4.171,4.171,0,0,0-1.535.582l-.632-1.6a6.105,6.105,0,0,0-1.052-1.756l.239-2.168a15.878,15.878,0,0,0,.1-1.663,14.96,14.96,0,0,0-1.22-5.906A13.24,13.24,0,0,1,56.5,32.032l.156-3.173c.01-.2.019-.407.019-.612a12.253,12.253,0,1,0-24.492.613l.155,3.162c.009.236.018.459.018.68a13.068,13.068,0,0,1-1.063,5.185,14.979,14.979,0,0,0-1.123,7.576l.238,2.138a6.223,6.223,0,0,0-.726,1.05l-1.251-3.128a2.7,2.7,0,1,0-4.922,2.21l.176.351h-1.8a4.606,4.606,0,0,1-2.05-.484l-.913-.457A2.017,2.017,0,0,0,16,48.946v2.587a2.735,2.735,0,0,0,1.52,2.46l1.492.746a6.449,6.449,0,0,0,2.87.677h.535v2.715l-.659,8.56A4,4,0,0,0,25.748,71q.1,0,.2-.005c.058,0,.117.005.175.005a3.69,3.69,0,0,0,3.466-2.424l4.184-7.78a8.018,8.018,0,0,0,1.474,3.191V71h1.833V63.667a.917.917,0,0,0-.212-.587,6.25,6.25,0,0,1,.8-8.792L36.5,52.879a8.08,8.08,0,0,0-1.139,1.163.942.942,0,0,0-.095.115h0l-.016.029-.011.02a8.027,8.027,0,0,0-1.192,2.228l-4.291,7.98V53.275l1.3-3.244a4.394,4.394,0,0,1,.965-1.479A4.639,4.639,0,0,1,35.3,47.167h3.068l5.239,9.606a.917.917,0,0,0,1.609,0l1.945-3.566V65.5a.917.917,0,0,0,.737.9l3.846.769V71h1.833V67.535l3.507.7c.023,0,.129.015.16.015h1.734l.176.328A3.714,3.714,0,0,0,62.64,71a3.451,3.451,0,0,0,.6-.05,3.715,3.715,0,0,0,2.869-2.394l2.438-.406a1.826,1.826,0,0,0,1.528-1.715l.183-.037A.917.917,0,0,0,71,65.5V49.917a.917.917,0,0,0-.324-.7ZM40.357,46.977a2.2,2.2,0,0,0,1.31-2.01V42.161a9.171,9.171,0,0,0,5.5,0v2.805a2.2,2.2,0,0,0,1.309,2.01L47.373,49H41.46Zm4.06-6.227a7.342,7.342,0,0,1-7.333-7.333v-4.1a13.391,13.391,0,0,0,3.967-4.542,23.744,23.744,0,0,0,10.7,4.844v3.8a7.342,7.342,0,0,1-7.333,7.333ZM56.8,48.567l.017.017a4.248,4.248,0,0,1,.951,1.468l.394.994a4.169,4.169,0,0,0-1.645-.653L49.352,49.2l1.108-2.032h3.058A4.542,4.542,0,0,1,56.8,48.567Zm.536,5.016-4.171-.834L49,51.915V51l7.22,1.2a2.322,2.322,0,0,1,1.761,1.382ZM61.947,52.2l7.22-1.2v.917l-4.311.862-4.029.806h-.64A2.322,2.322,0,0,1,61.947,52.2Zm-42.115.9-1.492-.746a.912.912,0,0,1-.507-.82V48.946a.183.183,0,0,1,.265-.164l.914.457a6.449,6.449,0,0,0,2.87.677h3.285a.917.917,0,0,0,.82-1.327l-.839-1.678a.866.866,0,1,1,1.579-.709l1.19,2.974v4.407H21.882A4.606,4.606,0,0,1,19.832,53.1Zm8.085,2.317V57.25H24.25V55.417Zm-4.33,11.415.6-7.749h3.734V67a2.17,2.17,0,0,1-2.012,2.161.937.937,0,0,0-.1.005l-.054,0a2.168,2.168,0,0,1-2.162-2.335ZM35.265,54.157a.915.915,0,0,1,.058-.071l-.056.072ZM32.095,46.2l-.105-.942a13.143,13.143,0,0,1,.985-6.648A14.89,14.89,0,0,0,34.187,32.7c0-.256-.01-.507-.019-.76l-.156-3.172a10.42,10.42,0,1,1,20.828-.523c0,.162-.008.338-.017.523l-.156,3.17a15.081,15.081,0,0,0,1.191,6.668,13.138,13.138,0,0,1,1.072,5.186,14.044,14.044,0,0,1-.086,1.467l-.1.945a6.411,6.411,0,0,0-3.22-.871H49.367A.372.372,0,0,1,49,44.967V41.35a9.17,9.17,0,0,0,4.583-7.933V28.833a.917.917,0,0,0-.787-.908,21.917,21.917,0,0,1-10.939-4.863l-.521-.434a.917.917,0,0,0-1.407.294l-.355.71a11.548,11.548,0,0,1-3.917,4.437.917.917,0,0,0-.408.763v4.583a9.17,9.17,0,0,0,4.583,7.933v3.617a.372.372,0,0,1-.367.367H35.3a6.458,6.458,0,0,0-3.21.866Zm12.322,8.22-1.956-3.586h3.912ZM49,53.785l7.333,1.467V66.215L49,64.748Zm9.167,1.632H60v11H58.167ZM62.93,69.144a1.64,1.64,0,0,1-.29.023,1.878,1.878,0,0,1-1.616-.924l.051-.008.02,0H61.1l1.884-.377a1.809,1.809,0,0,0,.923.8A1.911,1.911,0,0,1,62.93,69.144Zm5.32-2.8-3.667.611V63.546a.276.276,0,0,1,.231-.273l3.114-.519a.3.3,0,0,1,.047,0,.277.277,0,0,1,.275.277v3.315Zm-.624-5.4-3.113.519a2.1,2.1,0,0,0-1.763,2.081v2.486l-.917.183V55.252l7.333-1.467v7.5a2.1,2.1,0,0,0-1.54-.342Z" transform="translate(-16 -16)"/>
      </g>
    </g>
  </g>
</svg>
