<svg xmlns="http://www.w3.org/2000/svg" xmlns:xlink="http://www.w3.org/1999/xlink" width="108" height="108" viewBox="0 0 108 108">
  <defs>
    <filter id="Path_978624" x="0" y="0" width="108" height="108" filterUnits="userSpaceOnUse">
      <feOffset dy="3" input="SourceAlpha"/>
      <feGaussianBlur stdDeviation="3" result="blur"/>
      <feFlood flood-opacity="0.161"/>
      <feComposite operator="in" in2="blur"/>
      <feComposite in="SourceGraphic"/>
    </filter>
  </defs>
  <g id="Group_1164951" data-name="Group 1164951" transform="translate(-198 -2916.633)">
    <g id="Group_1164629" data-name="Group 1164629" transform="translate(207 2922.633)">
      <g id="Group_1144123" data-name="Group 1144123">
        <g transform="matrix(1, 0, 0, 1, -9, -6)" filter="url(#Path_978624)">
          <g id="Path_978624-2" data-name="Path 978624" transform="translate(9 6)" fill="#edf3fc">
            <path d="M 45 88.5 C 39.12687683105469 88.5 33.43022537231445 87.35007476806641 28.06830024719238 85.08217620849609 C 22.88852500915527 82.89131164550781 18.23629951477051 79.75458526611328 14.2408504486084 75.75914764404297 C 10.24541282653809 71.76370239257812 7.108687400817871 67.11147308349609 4.917825222015381 61.93170166015625 C 2.649924993515015 56.56977462768555 1.5 50.87312316894531 1.5 45 C 1.5 39.12687683105469 2.649924993515015 33.43022537231445 4.917825222015381 28.06830024719238 C 7.108687400817871 22.88852500915527 10.24541282653809 18.23629951477051 14.2408504486084 14.2408504486084 C 18.23629951477051 10.24541282653809 22.88852500915527 7.108687400817871 28.06830024719238 4.917825222015381 C 33.43022537231445 2.649924993515015 39.12687683105469 1.5 45 1.5 C 50.87312316894531 1.5 56.56977462768555 2.649924993515015 61.93170166015625 4.917825222015381 C 67.11147308349609 7.108687400817871 71.76370239257812 10.24541282653809 75.75914764404297 14.2408504486084 C 79.75458526611328 18.23629951477051 82.89131164550781 22.88852500915527 85.08217620849609 28.06830024719238 C 87.35007476806641 33.43022537231445 88.5 39.12687683105469 88.5 45 C 88.5 50.87312316894531 87.35007476806641 56.56977462768555 85.08217620849609 61.93170166015625 C 82.89131164550781 67.11147308349609 79.75458526611328 71.76370239257812 75.75914764404297 75.75914764404297 C 71.76370239257812 79.75458526611328 67.11147308349609 82.89131164550781 61.93170166015625 85.08217620849609 C 56.56977462768555 87.35007476806641 50.87312316894531 88.5 45 88.5 Z" stroke="none"/>
            <path d="M 45 3 C 39.32871246337891 3 33.82865524291992 4.110054016113281 28.65262985229492 6.299339294433594 C 23.65165710449219 8.414573669433594 19.15968322753906 11.44334411621094 15.301513671875 15.301513671875 C 11.44334411621094 19.15968322753906 8.414573669433594 23.65165710449219 6.299339294433594 28.65262985229492 C 4.110054016113281 33.82865524291992 3 39.32871246337891 3 45 C 3 50.67128753662109 4.110054016113281 56.17134475708008 6.299339294433594 61.34737396240234 C 8.414573669433594 66.34834289550781 11.44334411621094 70.84031677246094 15.301513671875 74.698486328125 C 19.15968322753906 78.55665588378906 23.65165710449219 81.58542633056641 28.65262985229492 83.70066070556641 C 33.82865524291992 85.88994598388672 39.32871246337891 87 45 87 C 50.67128753662109 87 56.17134475708008 85.88994598388672 61.34737396240234 83.70066070556641 C 66.34834289550781 81.58542633056641 70.84031677246094 78.55665588378906 74.698486328125 74.698486328125 C 78.55665588378906 70.84031677246094 81.58542633056641 66.34834289550781 83.70066070556641 61.34737396240234 C 85.88994598388672 56.17134475708008 87 50.67128753662109 87 45 C 87 39.32871246337891 85.88994598388672 33.82865524291992 83.70066070556641 28.65262985229492 C 81.58542633056641 23.65165710449219 78.55665588378906 19.15968322753906 74.698486328125 15.301513671875 C 70.84031677246094 11.44334411621094 66.34834289550781 8.414573669433594 61.34737396240234 6.299339294433594 C 56.17134475708008 4.110054016113281 50.67128753662109 3 45 3 M 45 0 C 69.85281372070312 0 90 20.14718627929688 90 45 C 90 69.85281372070312 69.85281372070312 90 45 90 C 20.14718627929688 90 0 69.85281372070312 0 45 C 0 20.14718627929688 20.14718627929688 0 45 0 Z" stroke="none" fill="#56838a"/>
          </g>
        </g>
      </g>
      <g id="compliant_4252360_1_" data-name="compliant_4252360 (1)" transform="translate(18.216 16.54)">
        <g id="Group_1164360" data-name="Group 1164360" transform="translate(11.255 0.834)">
          <path id="Path_982666" data-name="Path 982666" d="M152.274,7.5h-35.4a.556.556,0,0,0-.556.556V23.467h3.646a2.724,2.724,0,0,1,.19,5.442v3.38h0a1.111,1.111,0,0,1,.943,1.1v6.9a1.111,1.111,0,0,1-.943,1.1h0v3.38a2.724,2.724,0,0,1-.19,5.442h-3.646v4.562h7.672A1.112,1.112,0,0,1,125.1,55.88v2.212s0,0,0,0h.847a1.112,1.112,0,0,1,1.112,1.112v3.546H152.83V8.056A.556.556,0,0,0,152.274,7.5Z" transform="translate(-116.315 -7.5)" fill="#fff3de"/>
        </g>
        <g id="Group_1164361" data-name="Group 1164361" transform="translate(11.255 0.834)">
          <path id="Path_982667" data-name="Path 982667" d="M119.961,23.467l.1,0V8.056a.556.556,0,0,1,.556-.556h-3.745a.556.556,0,0,0-.556.556V23.467Z" transform="translate(-116.315 -7.5)" fill="#ffe5c2"/>
          <path id="Path_982668" data-name="Path 982668" d="M119.961,391.629h-3.646v4.562h3.745v-4.565Z" transform="translate(-116.315 -348.923)" fill="#ffe5c2"/>
        </g>
        <g id="Group_1164379" data-name="Group 1164379" transform="translate(0.834 16.801)">
          <g id="Group_1164362" data-name="Group 1164362" transform="translate(15.199 11.469)">
            <path id="Path_982669" data-name="Path 982669" d="M159.3,254.29h5.146v3.8H159.3Z" transform="translate(-159.296 -254.29)" fill="#883f2e"/>
            <path id="Path_982670" data-name="Path 982670" d="M237.5,254.29h7.35v3.8H237.5Z" transform="translate(-228.808 -254.29)" fill="#883f2e"/>
          </g>
          <g id="Group_1164363" data-name="Group 1164363" transform="translate(15.199 13.438)">
            <path id="Path_982671" data-name="Path 982671" d="M159.3,272h5.146v1.833H159.3Z" transform="translate(-159.296 -272)" fill="#6d3326"/>
            <path id="Path_982672" data-name="Path 982672" d="M237.5,272h7.35v1.833H237.5Z" transform="translate(-228.808 -272)" fill="#6d3326"/>
          </g>
          <g id="Group_1164364" data-name="Group 1164364" transform="translate(31.244 10.582)">
            <path id="Path_982673" data-name="Path 982673" d="M324.272,249.1a2.788,2.788,0,0,1-2.788,2.788H304.25a.634.634,0,0,1-.634-.634v-4.309a.634.634,0,0,1,.634-.634h17.235A2.788,2.788,0,0,1,324.272,249.1Z" transform="translate(-303.616 -246.31)" fill="#ca6e59"/>
          </g>
          <g id="Group_1164365" data-name="Group 1164365" transform="translate(31.244 10.582)">
            <path id="Path_982674" data-name="Path 982674" d="M307.405,249.5a.634.634,0,0,1-.634-.634V246.31H304.25a.634.634,0,0,0-.634.634v4.309a.634.634,0,0,0,.634.634h17.235a2.788,2.788,0,0,0,2.759-2.387Z" transform="translate(-303.616 -246.31)" fill="#bb5d4c"/>
          </g>
          <g id="Group_1164366" data-name="Group 1164366" transform="translate(20.345 10.582)">
            <path id="Path_982675" data-name="Path 982675" d="M209.133,246.867v4.464a.556.556,0,0,1-.556.556h-2.437a.556.556,0,0,1-.556-.556v-4.464a.556.556,0,0,1,.556-.556h2.437A.556.556,0,0,1,209.133,246.867Z" transform="translate(-205.585 -246.311)" fill="#ca6e59"/>
          </g>
          <g id="Group_1164367" data-name="Group 1164367" transform="translate(20.345 10.582)">
            <path id="Path_982676" data-name="Path 982676" d="M207.2,251.331v-4.464a.556.556,0,0,1,.556-.556h-1.612a.556.556,0,0,0-.556.556v4.464a.556.556,0,0,0,.556.556h1.612A.556.556,0,0,1,207.2,251.331Z" transform="translate(-205.585 -246.311)" fill="#bb5d4c"/>
          </g>
          <g id="Group_1164368" data-name="Group 1164368" transform="translate(6.907 5.442)">
            <path id="Path_982677" data-name="Path 982677" d="M91.884,312.311H84.872a1.117,1.117,0,0,1-.169-.014v3.38c.063,0,.126-.007.19-.007h6.97c.064,0,.127,0,.19.007V312.3A1.1,1.1,0,0,1,91.884,312.311Z" transform="translate(-84.703 -299.821)" fill="#883f2e"/>
            <path id="Path_982678" data-name="Path 982678" d="M84.872,312.311a1.117,1.117,0,0,1-.169-.014v3.38c.063,0,.126-.007.19-.007H87.5v-3.358h-2.63Z" transform="translate(-84.703 -299.821)" fill="#6d3326"/>
            <path id="Path_982679" data-name="Path 982679" d="M84.872,203.445h7.012a1.117,1.117,0,0,1,.169.014v-3.38c-.063,0-.126.007-.19.007h-6.97c-.064,0-.127,0-.19-.007v3.38A1.117,1.117,0,0,1,84.872,203.445Z" transform="translate(-84.703 -200.079)" fill="#883f2e"/>
            <path id="Path_982680" data-name="Path 982680" d="M84.872,203.444H87.5v-3.358H84.893c-.064,0-.127,0-.19-.007v3.38a1.132,1.132,0,0,1,.169-.014Z" transform="translate(-84.703 -200.078)" fill="#6d3326"/>
          </g>
          <g id="Group_1164369" data-name="Group 1164369" transform="translate(5.964 8.807)">
            <path id="Path_982681" data-name="Path 982681" d="M85.46,231.464v6.9a1.112,1.112,0,0,1-1.112,1.112H77.337a1.112,1.112,0,0,1-1.112-1.112v-6.9a1.112,1.112,0,0,1,1.112-1.112h7.012A1.112,1.112,0,0,1,85.46,231.464Z" transform="translate(-76.225 -230.352)" fill="#ca6e59"/>
          </g>
          <g id="Group_1164370" data-name="Group 1164370" transform="translate(5.964 8.807)">
            <path id="Path_982682" data-name="Path 982682" d="M79.98,238.364v-6.9a1.112,1.112,0,0,1,1.112-1.112H77.337a1.112,1.112,0,0,0-1.112,1.112v6.9a1.112,1.112,0,0,0,1.112,1.112h3.755A1.112,1.112,0,0,1,79.98,238.364Z" transform="translate(-76.225 -230.352)" fill="#bb5d4c"/>
          </g>
          <g id="Group_1164373" data-name="Group 1164373" transform="translate(0 31.301)">
            <path id="Path_982683" data-name="Path 982683" d="M57.435,436.123a1.138,1.138,0,0,0,.006-.114V433.8a1.112,1.112,0,0,0-1.112-1.112H41.307a1.112,1.112,0,0,0-1.112,1.112v2.212a1.137,1.137,0,0,0,.006.114Z" transform="translate(-38.236 -432.685)" fill="#ca6e59"/>
            <path id="Path_982684" data-name="Path 982684" d="M43.959,436.123a1.137,1.137,0,0,1-.006-.114V433.8a1.112,1.112,0,0,1,1.112-1.112H41.307a1.112,1.112,0,0,0-1.112,1.112v2.212a1.138,1.138,0,0,0,.006.114Z" transform="translate(-38.236 -432.685)" fill="#bb5d4c"/>
            <g id="Group_1164371" data-name="Group 1164371" transform="translate(0 3.327)">
              <path id="Path_982685" data-name="Path 982685" d="M43.741,467.265H23.134a.556.556,0,0,1-.556-.556v-2.99a1.112,1.112,0,0,1,1.112-1.112h18.94a1.112,1.112,0,0,1,1.112,1.112Z" transform="translate(-22.578 -462.608)" fill="#883f2e"/>
            </g>
            <g id="Group_1164372" data-name="Group 1164372" transform="translate(0 3.327)">
              <path id="Path_982686" data-name="Path 982686" d="M26.294,466.709v-2.99a1.112,1.112,0,0,1,1.112-1.112H23.69a1.112,1.112,0,0,0-1.112,1.112v2.99a.556.556,0,0,0,.556.556h3.716A.556.556,0,0,1,26.294,466.709Z" transform="translate(-22.578 -462.608)" fill="#6d3326"/>
            </g>
          </g>
          <g id="Group_1164378" data-name="Group 1164378" transform="translate(4.372)">
            <g id="Group_1164374" data-name="Group 1164374" transform="translate(0 21.29)">
              <path id="Path_982687" data-name="Path 982687" d="M74.324,345.358a2.725,2.725,0,0,1-2.725,2.725H64.63a2.725,2.725,0,1,1,0-5.449H71.6A2.725,2.725,0,0,1,74.324,345.358Z" transform="translate(-61.905 -342.633)" fill="#ca6e59"/>
            </g>
            <g id="Group_1164375" data-name="Group 1164375" transform="translate(0 21.29)">
              <path id="Path_982688" data-name="Path 982688" d="M65.616,345.358a2.725,2.725,0,0,1,2.725-2.725H64.63a2.725,2.725,0,1,0,0,5.449h3.711A2.725,2.725,0,0,1,65.616,345.358Z" transform="translate(-61.905 -342.633)" fill="#bb5d4c"/>
            </g>
            <g id="Group_1164376" data-name="Group 1164376" transform="translate(0)">
              <path id="Path_982689" data-name="Path 982689" d="M74.324,153.853a2.725,2.725,0,0,1-2.725,2.725H64.63a2.725,2.725,0,0,1,0-5.449H71.6A2.725,2.725,0,0,1,74.324,153.853Z" transform="translate(-61.905 -151.128)" fill="#ca6e59"/>
            </g>
            <g id="Group_1164377" data-name="Group 1164377" transform="translate(0)">
              <path id="Path_982690" data-name="Path 982690" d="M65.616,153.853a2.725,2.725,0,0,1,2.725-2.725H64.63a2.725,2.725,0,1,0,0,5.449h3.711A2.725,2.725,0,0,1,65.616,153.853Z" transform="translate(-61.905 -151.128)" fill="#bb5d4c"/>
            </g>
          </g>
        </g>
        <g id="Group_1164382" data-name="Group 1164382" transform="translate(21.711 6.015)">
          <g id="Group_1164380" data-name="Group 1164380">
            <circle id="Ellipse_11659" data-name="Ellipse 11659" cx="7.801" cy="7.801" r="7.801" fill="#4fc123"/>
          </g>
          <g id="Group_1164381" data-name="Group 1164381" transform="translate(0)">
            <path id="Path_982691" data-name="Path 982691" d="M214.11,61.908a7.8,7.8,0,0,1,5.932-7.574,7.8,7.8,0,1,0,0,15.148A7.8,7.8,0,0,1,214.11,61.908Z" transform="translate(-210.372 -54.107)" fill="#47a920"/>
          </g>
        </g>
        <g id="Group_1164383" data-name="Group 1164383">
          <path id="Path_982692" data-name="Path 982692" d="M65.024,26.549H63.681V12.118a.834.834,0,0,0-.859-.833.857.857,0,0,0-.808.868v14.4H56.425a.834.834,0,1,0,0,1.668h8.6a1.954,1.954,0,1,1,0,3.908H47.989V28.217h4.545a.834.834,0,0,0,0-1.668H47.789a1.469,1.469,0,0,0-1.347.887h-5.9a1.391,1.391,0,0,0-1.294-.887H36.813a1.391,1.391,0,0,0-1.294.887H31.945V26.72A1.944,1.944,0,0,0,31,25.056V22.933a3.558,3.558,0,0,0-1.024-6.966H27.166V1.668H62.014V8.227a.834.834,0,0,0,.859.833.857.857,0,0,0,.808-.868V1.39A1.39,1.39,0,0,0,62.291,0h-35.4A1.39,1.39,0,0,0,25.5,1.39V15.967h-2.49a3.558,3.558,0,0,0-1.024,6.966v2.123a1.944,1.944,0,0,0-.943,1.664v6.9a1.944,1.944,0,0,0,.943,1.664v2.123a3.558,3.558,0,0,0,1.024,6.966H25.5v2.895H18.982a1.948,1.948,0,0,0-1.946,1.946V50.6h-.013a1.948,1.948,0,0,0-1.946,1.946v2.99a1.391,1.391,0,0,0,1.39,1.39H62.291a1.39,1.39,0,0,0,1.39-1.39V33.793h1.343a3.622,3.622,0,0,0,0-7.244ZM40.639,29.1h5.683v2.134H40.639Zm-3.548-.887h1.881v3.908H37.091Zm-5.146.887h3.478v2.134H31.945ZM21.118,19.526a1.893,1.893,0,0,1,1.891-1.891h6.97a1.891,1.891,0,0,1,0,3.782h-6.97a1.893,1.893,0,0,1-1.891-1.891ZM22.988,33.9a.278.278,0,0,1-.278-.278v-6.9a.278.278,0,0,1,.278-.278H30a.278.278,0,0,1,.278.278v6.9A.278.278,0,0,1,30,33.9Zm6.347,1.668v1.691H23.652V35.567ZM23.652,24.775V23.084h5.682v1.691Zm-.644,17.932a1.891,1.891,0,1,1,0-3.782h6.97a1.891,1.891,0,0,1,0,3.782ZM36.241,55.252h-19.5V52.541a.278.278,0,0,1,.278-.278h5.161a.834.834,0,0,0,0-1.668H18.7V49.214a.278.278,0,0,1,.278-.278H34a.278.278,0,0,1,.278.278V50.6H26.075a.834.834,0,1,0,0,1.668h9.888a.278.278,0,0,1,.278.278Zm25.772,0h-24.1V52.541A1.948,1.948,0,0,0,35.963,50.6H35.95V49.214A1.948,1.948,0,0,0,34,47.269H27.166V44.374h2.812A3.558,3.558,0,0,0,31,37.408V35.285a1.944,1.944,0,0,0,.943-1.664v-.716h3.574a1.391,1.391,0,0,0,1.294.887h2.437a1.391,1.391,0,0,0,1.294-.887h5.9a1.469,1.469,0,0,0,1.347.887H62.014v21.46Z" transform="translate(-15.078 0)"/>
          <path id="Path_982693" data-name="Path 982693" d="M202.872,55.242a8.635,8.635,0,1,0,8.635-8.635A8.644,8.644,0,0,0,202.872,55.242Zm15.6,0a6.967,6.967,0,1,1-6.967-6.967A6.975,6.975,0,0,1,218.474,55.242Z" transform="translate(-181.995 -41.426)"/>
          <path id="Path_982694" data-name="Path 982694" d="M247.767,102.814a.834.834,0,0,0-1.179,1.179l2.565,2.565a.834.834,0,0,0,1.179,0l3.975-3.975a.834.834,0,1,0-1.179-1.179l-3.386,3.386Z" transform="translate(-220.633 -89.913)"/>
          <path id="Path_982695" data-name="Path 982695" d="M243.681,327.9a.834.834,0,0,0,.834.834h15.334a.834.834,0,0,0,0-1.668H244.515A.834.834,0,0,0,243.681,327.9Z" transform="translate(-218.267 -290.708)"/>
          <path id="Path_982696" data-name="Path 982696" d="M319.239,363.546h-7.905a.834.834,0,0,0,0,1.668h7.905a.834.834,0,0,0,0-1.668Z" transform="translate(-277.657 -323.13)"/>
          <path id="Path_982697" data-name="Path 982697" d="M244.515,365.214h4.538a.834.834,0,1,0,0-1.668h-4.538a.834.834,0,1,0,0,1.668Z" transform="translate(-218.267 -323.13)"/>
          <path id="Path_982698" data-name="Path 982698" d="M259.848,400.023H244.514a.834.834,0,1,0,0,1.668h15.334a.834.834,0,1,0,0-1.668Z" transform="translate(-218.266 -355.552)"/>
          <path id="Path_982699" data-name="Path 982699" d="M350.348,436.5h-4.014a.834.834,0,1,0,0,1.668h4.014a.834.834,0,0,0,0-1.668Z" transform="translate(-308.766 -387.973)"/>
          <path id="Path_982700" data-name="Path 982700" d="M253.277,436.5h-8.762a.834.834,0,0,0,0,1.668h8.762a.834.834,0,0,0,0-1.668Z" transform="translate(-218.267 -387.973)"/>
        </g>
      </g>
    </g>
  </g>
</svg>
