<svg xmlns="http://www.w3.org/2000/svg" xmlns:xlink="http://www.w3.org/1999/xlink" width="101.003" height="101.003" viewBox="0 0 101.003 101.003">
  <defs>
    <filter id="Path_904820" x="0" y="0" width="101.003" height="101.003" filterUnits="userSpaceOnUse">
      <feOffset dy="3" input="SourceAlpha"/>
      <feGaussianBlur stdDeviation="3" result="blur"/>
      <feFlood flood-opacity="0.161"/>
      <feComposite operator="in" in2="blur"/>
      <feComposite in="SourceGraphic"/>
    </filter>
    <clipPath id="clip-path">
      <path id="path2307" d="M0-682.665H55.077v55.077H0Z" transform="translate(0 682.665)"/>
    </clipPath>
  </defs>
  <g id="Group_1164930" data-name="Group 1164930" transform="translate(-196 -448)">
    <g id="Group_1164616" data-name="Group 1164616" transform="translate(3.003 -2649)">
      <g id="Group_1164288" data-name="Group 1164288" transform="translate(201.997 3103)">
        <g id="Icono">
          <g transform="matrix(1, 0, 0, 1, -9, -6)" filter="url(#Path_904820)">
            <g id="Path_904820-2" data-name="Path 904820" transform="translate(9 6)" fill="#edf3fc">
              <path d="M 41.50173950195312 81.50347900390625 C 36.10087966918945 81.50347900390625 30.86236381530762 80.446044921875 25.93171691894531 78.36056518554688 C 21.16851615905762 76.34590148925781 16.89040946960449 73.46141815185547 13.216233253479 69.78724670410156 C 9.542068481445312 66.11306762695312 6.657586574554443 61.83496475219727 4.642916202545166 57.07176208496094 C 2.557433605194092 52.14111709594727 1.499998331069946 46.9025993347168 1.499998331069946 41.50173950195312 C 1.499998331069946 36.10087966918945 2.557433605194092 30.86236381530762 4.642916202545166 25.93171691894531 C 6.657586574554443 21.16851615905762 9.542068481445312 16.89040946960449 13.216233253479 13.216233253479 C 16.89040946960449 9.542068481445312 21.16851615905762 6.657586574554443 25.93171691894531 4.642916202545166 C 30.86236381530762 2.557433605194092 36.10087966918945 1.499998331069946 41.50173950195312 1.499998331069946 C 46.9025993347168 1.499998331069946 52.14111709594727 2.557433605194092 57.07176208496094 4.642916202545166 C 61.83496475219727 6.657586574554443 66.11306762695312 9.542068481445312 69.78724670410156 13.216233253479 C 73.46141815185547 16.89040946960449 76.34590148925781 21.16851615905762 78.36056518554688 25.93171691894531 C 80.446044921875 30.86236381530762 81.50347900390625 36.10087966918945 81.50347900390625 41.50173950195312 C 81.50347900390625 46.9025993347168 80.446044921875 52.14111709594727 78.36056518554688 57.07176208496094 C 76.34590148925781 61.83496475219727 73.46141815185547 66.11306762695312 69.78724670410156 69.78724670410156 C 66.11306762695312 73.46141815185547 61.83496475219727 76.34590148925781 57.07176208496094 78.36056518554688 C 52.14111709594727 80.446044921875 46.9025993347168 81.50347900390625 41.50173950195312 81.50347900390625 Z" stroke="none"/>
              <path d="M 41.50173950195312 2.999992370605469 C 36.30271148681641 2.999992370605469 31.26080703735352 4.017555236816406 26.51604461669922 6.024421691894531 C 21.93164443969727 7.963462829589844 17.81378936767578 10.739990234375 14.27690124511719 14.27690124511719 C 10.739990234375 17.81378936767578 7.963462829589844 21.93164443969727 6.024421691894531 26.51604461669922 C 4.017555236816406 31.26080703735352 2.999992370605469 36.30271148681641 2.999992370605469 41.50173950195312 C 2.999992370605469 46.70076751708984 4.017555236816406 51.74268341064453 6.024421691894531 56.48743438720703 C 7.963462829589844 61.07183074951172 10.739990234375 65.18968200683594 14.27690124511719 68.72657775878906 C 17.81378936767578 72.26348876953125 21.93164443969727 75.04000854492188 26.51604461669922 76.97904968261719 C 31.26080703735352 78.98591613769531 36.30271148681641 80.00347137451172 41.50173950195312 80.00347137451172 C 46.70076751708984 80.00347137451172 51.74268341064453 78.98591613769531 56.48743438720703 76.97904968261719 C 61.07183074951172 75.04000854492188 65.18968200683594 72.26348876953125 68.72657775878906 68.72657775878906 C 72.26348876953125 65.18968200683594 75.04000854492188 61.07183074951172 76.97904968261719 56.48743438720703 C 78.98591613769531 51.74268341064453 80.00347137451172 46.70076751708984 80.00347137451172 41.50173950195312 C 80.00347137451172 36.30271148681641 78.98591613769531 31.26080703735352 76.97904968261719 26.51604461669922 C 75.04000854492188 21.93164443969727 72.26348876953125 17.81378936767578 68.72657775878906 14.27690124511719 C 65.18968200683594 10.739990234375 61.07183074951172 7.963462829589844 56.48743438720703 6.024421691894531 C 51.74268341064453 4.017555236816406 46.70076751708984 2.999992370605469 41.50173950195312 2.999992370605469 M 41.50173950195312 -7.62939453125e-06 C 64.42252349853516 -7.62939453125e-06 83.00347137451172 18.58096313476562 83.00347137451172 41.50173950195312 C 83.00347137451172 64.42252349853516 64.42252349853516 83.00347137451172 41.50173950195312 83.00347137451172 C 18.58096313476562 83.00347137451172 -7.62939453125e-06 64.42252349853516 -7.62939453125e-06 41.50173950195312 C -7.62939453125e-06 18.58096313476562 18.58096313476562 -7.62939453125e-06 41.50173950195312 -7.62939453125e-06 Z" stroke="none" fill="#2f4f7e"/>
            </g>
          </g>
        </g>
      </g>
      <g id="g2301" transform="translate(215.959 3799.628)">
        <g id="g2303" transform="translate(0 -682.665)">
          <g id="g2305" clip-path="url(#clip-path)">
            <g id="g2311" transform="translate(1.076 27.539)">
              <path id="path2313" d="M-603.073-49.03v-4.3h-43.244A9.692,9.692,0,0,0-656-43.652a9.692,9.692,0,0,0,9.682,9.682h43.244v-4.3H-606.3V-49.03Z" transform="translate(655.998 53.333)" fill="#91d9b9"/>
            </g>
            <g id="g2315" transform="translate(5.379 31.842)">
              <path id="path2317" d="M-61.288,0a5.385,5.385,0,0,0-5.379,5.379,5.385,5.385,0,0,0,5.379,5.379h40.017V0Z" transform="translate(66.667)" fill="#eff3f3"/>
            </g>
            <g id="g2319" transform="translate(29.69 7.53)">
              <path id="path2321" d="M-240.248,0a3.227,3.227,0,0,1,3.227,3.227,3.227,3.227,0,0,1-3.227,3.227h-21.084V0Z" transform="translate(261.333)" fill="#8690a6"/>
            </g>
            <g id="g2323" transform="translate(17.857 37.22)">
              <path id="path2325" d="M-147.091-191.218l-6.454-3.227L-160-191.218V-208h12.909Z" transform="translate(160 207.999)" fill="#ff6977"/>
            </g>
            <path id="path2327" d="M294.454-582.877H288v-6.454h6.454Z" transform="translate(-264.764 596.862)" fill="#ff6977"/>
            <path id="path2329" d="M153.166-649.969H141.333v-19.363h11.833Z" transform="translate(-129.93 670.407)" fill="#ffcb7c"/>
            <g id="g2331" transform="translate(8.176 20.439)">
              <path id="path2333" d="M0,0H18.287" fill="none" stroke="#000" stroke-linecap="round" stroke-linejoin="round" stroke-miterlimit="10" stroke-width="1.3"/>
            </g>
            <g id="g2335" transform="translate(8.176 1.076)">
              <path id="path2337" d="M0,0H18.287" fill="none" stroke="#000" stroke-linecap="round" stroke-linejoin="round" stroke-miterlimit="10" stroke-width="1.3"/>
            </g>
            <g id="g2339" transform="translate(11.403 1.076)">
              <path id="path2341" d="M0,0V19.363" fill="none" stroke="#000" stroke-linecap="round" stroke-linejoin="round" stroke-miterlimit="10" stroke-width="1.3"/>
            </g>
            <g id="g2343" transform="translate(23.236 1.076)">
              <path id="path2345" d="M0-220.636V-240" transform="translate(0 239.999)" fill="none" stroke="#000" stroke-linecap="round" stroke-linejoin="round" stroke-miterlimit="10" stroke-width="1.3"/>
            </g>
            <g id="g2347" transform="translate(23.236 7.53)">
              <path id="path2349" d="M0,0H27.539a3.227,3.227,0,1,1,0,6.454H0" fill="none" stroke="#000" stroke-linecap="round" stroke-linejoin="round" stroke-miterlimit="10" stroke-width="1.3"/>
            </g>
            <g id="g2351" transform="translate(29.69 7.53)">
              <path id="path2353" d="M0,0V6.454" transform="translate(0 0)" fill="none" stroke="#000" stroke-linecap="round" stroke-linejoin="round" stroke-miterlimit="10" stroke-width="1.3"/>
            </g>
            <g id="g2355" transform="translate(30.766 42.599)">
              <path id="path2357" d="M0-49.03H23.236v-4.3H0" transform="translate(0 53.333)" fill="none" stroke="#000" stroke-linecap="round" stroke-linejoin="round" stroke-miterlimit="10" stroke-width="1.3"/>
            </g>
            <g id="g2359" transform="translate(50.774 31.842)">
              <path id="path2361" d="M0-122.576v-10.757" transform="translate(0 133.333)" fill="none" stroke="#000" stroke-linecap="round" stroke-linejoin="round" stroke-miterlimit="10" stroke-width="1.3"/>
            </g>
            <g id="g2363" transform="translate(10.757 37.22)">
              <path id="path2365" d="M-455.982,0H-496" transform="translate(495.999)" fill="none" stroke="#000" stroke-linecap="round" stroke-linejoin="round" stroke-miterlimit="10" stroke-width="1.3"/>
            </g>
            <g id="g2367" transform="translate(17.857 37.22)">
              <path id="path2369" d="M0,0V16.781l6.454-3.227,6.454,3.227V0" fill="none" stroke="#000" stroke-linecap="round" stroke-linejoin="round" stroke-miterlimit="10" stroke-width="1.3"/>
            </g>
            <g id="g2371" transform="translate(28.614 26.463)">
              <path id="path2373" d="M-24.515-12.258a1.076,1.076,0,0,1-1.076,1.076,1.076,1.076,0,0,1-1.076-1.076,1.076,1.076,0,0,1,1.076-1.076,1.076,1.076,0,0,1,1.076,1.076" transform="translate(26.667 13.333)"/>
            </g>
            <g id="g2375" transform="translate(1.076 27.539)">
              <path id="path2377" d="M-191.218-220.636h-7.1A9.692,9.692,0,0,1-208-230.318,9.692,9.692,0,0,1-198.318-240h14.092" transform="translate(207.999 239.999)" fill="none" stroke="#000" stroke-linecap="round" stroke-linejoin="round" stroke-miterlimit="10" stroke-width="1.3"/>
            </g>
            <g id="g2379" transform="translate(5.379 27.539)">
              <path id="path2381" d="M-332.181,0h19.471V4.3h-43.244a5.385,5.385,0,0,0-5.379,5.379,5.385,5.385,0,0,0,5.379,5.379h7.1" transform="translate(361.334)" fill="none" stroke="#000" stroke-linecap="round" stroke-linejoin="round" stroke-miterlimit="10" stroke-width="1.3"/>
            </g>
          </g>
        </g>
      </g>
    </g>
  </g>
</svg>
