<svg xmlns="http://www.w3.org/2000/svg" xmlns:xlink="http://www.w3.org/1999/xlink" width="108" height="108" viewBox="0 0 108 108">
  <defs>
    <filter id="Path_978624" x="0" y="0" width="108" height="108" filterUnits="userSpaceOnUse">
      <feOffset dy="3" input="SourceAlpha"/>
      <feGaussianBlur stdDeviation="3" result="blur"/>
      <feFlood flood-opacity="0.161"/>
      <feComposite operator="in" in2="blur"/>
      <feComposite in="SourceGraphic"/>
    </filter>
  </defs>
  <g id="Group_1164914" data-name="Group 1164914" transform="translate(-617 -6329)">
    <g id="Group_1164634" data-name="Group 1164634">
      <g id="Group_1164598" data-name="Group 1164598" transform="translate(626 6335)">
        <g id="Group_1144123" data-name="Group 1144123">
          <g transform="matrix(1, 0, 0, 1, -9, -6)" filter="url(#Path_978624)">
            <g id="Path_978624-2" data-name="Path 978624" transform="translate(9 6)" fill="#fcf9e5">
              <path d="M 45 88.5 C 39.12687683105469 88.5 33.43022537231445 87.35007476806641 28.06830024719238 85.08217620849609 C 22.88852500915527 82.89131164550781 18.23629951477051 79.75458526611328 14.2408504486084 75.75914764404297 C 10.24541282653809 71.76370239257812 7.108687400817871 67.11147308349609 4.917825222015381 61.93170166015625 C 2.649924993515015 56.56977462768555 1.5 50.87312316894531 1.5 45 C 1.5 39.12687683105469 2.649924993515015 33.43022537231445 4.917825222015381 28.06830024719238 C 7.108687400817871 22.88852500915527 10.24541282653809 18.23629951477051 14.2408504486084 14.2408504486084 C 18.23629951477051 10.24541282653809 22.88852500915527 7.108687400817871 28.06830024719238 4.917825222015381 C 33.43022537231445 2.649924993515015 39.12687683105469 1.5 45 1.5 C 50.87312316894531 1.5 56.56977462768555 2.649924993515015 61.93170166015625 4.917825222015381 C 67.11147308349609 7.108687400817871 71.76370239257812 10.24541282653809 75.75914764404297 14.2408504486084 C 79.75458526611328 18.23629951477051 82.89131164550781 22.88852500915527 85.08217620849609 28.06830024719238 C 87.35007476806641 33.43022537231445 88.5 39.12687683105469 88.5 45 C 88.5 50.87312316894531 87.35007476806641 56.56977462768555 85.08217620849609 61.93170166015625 C 82.89131164550781 67.11147308349609 79.75458526611328 71.76370239257812 75.75914764404297 75.75914764404297 C 71.76370239257812 79.75458526611328 67.11147308349609 82.89131164550781 61.93170166015625 85.08217620849609 C 56.56977462768555 87.35007476806641 50.87312316894531 88.5 45 88.5 Z" stroke="none"/>
              <path d="M 45 3 C 39.32871246337891 3 33.82865524291992 4.110054016113281 28.65262985229492 6.299339294433594 C 23.65165710449219 8.414573669433594 19.15968322753906 11.44334411621094 15.301513671875 15.301513671875 C 11.44334411621094 19.15968322753906 8.414573669433594 23.65165710449219 6.299339294433594 28.65262985229492 C 4.110054016113281 33.82865524291992 3 39.32871246337891 3 45 C 3 50.67128753662109 4.110054016113281 56.17134475708008 6.299339294433594 61.34737396240234 C 8.414573669433594 66.34834289550781 11.44334411621094 70.84031677246094 15.301513671875 74.698486328125 C 19.15968322753906 78.55665588378906 23.65165710449219 81.58542633056641 28.65262985229492 83.70066070556641 C 33.82865524291992 85.88994598388672 39.32871246337891 87 45 87 C 50.67128753662109 87 56.17134475708008 85.88994598388672 61.34737396240234 83.70066070556641 C 66.34834289550781 81.58542633056641 70.84031677246094 78.55665588378906 74.698486328125 74.698486328125 C 78.55665588378906 70.84031677246094 81.58542633056641 66.34834289550781 83.70066070556641 61.34737396240234 C 85.88994598388672 56.17134475708008 87 50.67128753662109 87 45 C 87 39.32871246337891 85.88994598388672 33.82865524291992 83.70066070556641 28.65262985229492 C 81.58542633056641 23.65165710449219 78.55665588378906 19.15968322753906 74.698486328125 15.301513671875 C 70.84031677246094 11.44334411621094 66.34834289550781 8.414573669433594 61.34737396240234 6.299339294433594 C 56.17134475708008 4.110054016113281 50.67128753662109 3 45 3 M 45 0 C 69.85281372070312 0 90 20.14718627929688 90 45 C 90 69.85281372070312 69.85281372070312 90 45 90 C 20.14718627929688 90 0 69.85281372070312 0 45 C 0 20.14718627929688 20.14718627929688 0 45 0 Z" stroke="none" fill="#bcac89"/>
            </g>
          </g>
        </g>
      </g>
      <g id="bill-rights_17977473" transform="translate(617.929 6343.511)">
        <path id="Path_982590" data-name="Path 982590" d="M33.644,255.7h53a.638.638,0,0,1,.638.638v28.574a.638.638,0,0,1-.638.638h-53a.638.638,0,0,1-.638-.638V256.337a.638.638,0,0,1,.638-.638Z" transform="translate(-7.07 -221.95)" fill="#c3c3c9"/>
        <g id="Group_1164354" data-name="Group 1164354" transform="translate(26.089 11.443)">
          <path id="Path_982591" data-name="Path 982591" d="M260.529,218.533h18.091v29.85H259.931a4.533,4.533,0,0,0-3.925,2.283v-27.61a4.536,4.536,0,0,1,4.523-4.523Z" transform="translate(-229.024 -200.749)" fill="#f0e3df" fill-rule="evenodd"/>
          <path id="Path_982592" data-name="Path 982592" d="M88.264,218.533H70.173v29.85H88.861a4.533,4.533,0,0,1,3.925,2.283v-27.61A4.536,4.536,0,0,0,88.264,218.533Z" transform="translate(-65.804 -200.749)" fill="#eceff1" fill-rule="evenodd"/>
          <path id="Path_982593" data-name="Path 982593" d="M49.161,216.342a7.463,7.463,0,0,1-14.889,0,.485.485,0,0,1,.486-.52H48.675A.485.485,0,0,1,49.161,216.342Z" transform="translate(-34.27 -198.368)" fill="#ffd987" fill-rule="evenodd"/>
          <path id="Path_982594" data-name="Path 982594" d="M370.255,216.342a7.463,7.463,0,0,1-14.889,0,.485.485,0,0,1,.486-.52h13.918A.485.485,0,0,1,370.255,216.342Z" transform="translate(-316.291 -198.368)" fill="#ffd987" fill-rule="evenodd"/>
          <path id="Path_982595" data-name="Path 982595" d="M177.782,95.6l-.1,6.681h13L190.6,98.8a7.8,7.8,0,0,1,.884-3.876c2.018-3.968,4.168-4.869,4.821-9.971a8.746,8.746,0,0,0-.707-5.39,3.259,3.259,0,0,0-2.616-1.553V75.336a2.194,2.194,0,0,0-4.388,0v-.65a2.3,2.3,0,1,0-4.6,0v.522a2.166,2.166,0,0,0-4.331,0v.966a1.959,1.959,0,1,0-3.919,0v3.618a1.943,1.943,0,0,0,.3,1.04h0c-1.617,13.149,1.8,10.478,1.731,14.77Z" transform="translate(-158.417 -72.387)" fill="#ffcec0" fill-rule="evenodd"/>
        </g>
        <rect id="Rectangle_412287" data-name="Rectangle 412287" width="16.705" height="6.656" rx="3.328" transform="translate(43.412 38.515)" fill="#85caff"/>
        <path id="Path_982596" data-name="Path 982596" d="M35.432,45.235h3.552a.974.974,0,1,0,0-1.947H35.432a.974.974,0,0,0,0,1.947Zm35.277,0a.974.974,0,0,0,0-1.947H65.544a.974.974,0,0,0,0,1.947ZM27.772,30.193a5.843,5.843,0,0,0,11.523,0Zm2.36-1.947h6.8l-3.4-7Zm-4.388.973a.974.974,0,0,1,.973-.973h1.25L31.979,20h-1.9a.974.974,0,0,1,0-1.947H40.624a.974.974,0,0,1,0,1.947H35.09L39.1,28.246h1.25a.974.974,0,0,1,.973.973,7.79,7.79,0,0,1-15.58,0Zm50.264-.973-3.4-7-3.4,7Zm2.361,1.947H66.846a5.843,5.843,0,0,0,11.523,0ZM66.231,18.048h9.83a.974.974,0,0,1,0,1.947h-1.9l4.011,8.251h1.25a.973.973,0,0,1,.973.973,7.79,7.79,0,1,1-15.579,0,.973.973,0,0,1,.973-.973h1.25L71.051,20h-4.82a.974.974,0,0,1,0-1.947Zm-3.22-5.317a.97.97,0,0,0,.523-.153l2.363-1.51A.973.973,0,1,0,64.85,9.427l-2.363,1.51a.973.973,0,0,0,.524,1.794Zm-11.4-5.513a.974.974,0,0,0,.973-.973V3.973a.974.974,0,1,0-1.947,0V6.245A.974.974,0,0,0,51.608,7.218Zm-7.24,1.12a.974.974,0,0,0,1.526-1.209L44.335,5.162a.974.974,0,0,0-1.526,1.209l1.559,1.967ZM57.481,8.5a.973.973,0,0,0,1.367-.158l1.558-1.967a.973.973,0,1,0-1.525-1.209L57.322,7.129a.974.974,0,0,0,.16,1.368ZM37.318,11.068l2.363,1.51a.973.973,0,1,0,1.047-1.641l-2.363-1.51a.973.973,0,1,0-1.047,1.641Zm6.689,8.054a1.058,1.058,0,0,0,2.116,0V15.37a1.058,1.058,0,1,0-2.116,0ZM48.07,15.37v3.5a1.272,1.272,0,0,0,2.544,0v-4.5a1.272,1.272,0,0,0-2.544,0Zm4.492-1v2.513a3.332,3.332,0,0,1,1.931-.614h.89V13.827a1.41,1.41,0,0,0-2.821,0v.542Zm4.768.131v1.768h2.6V14.5a1.3,1.3,0,1,0-2.6,0Zm2.916,3.715a2.674,2.674,0,0,1,2.534,1.168,8.221,8.221,0,0,1,.6,4.969,12.4,12.4,0,0,1-2.715,6.513,27.14,27.14,0,0,0-2.185,3.508,8.992,8.992,0,0,0-.967,3.169H46.083l.031-2.014a5.735,5.735,0,0,0-1-3.515c-.773-1.285-1.723-2.867-.993-10.038a3,3,0,0,0,3.056-.721,3.212,3.212,0,0,0,4.359-.033,3.361,3.361,0,0,0,2.953,1.761h1.538a10.623,10.623,0,0,0-3.758,6.487.973.973,0,1,0,1.921.312,9.321,9.321,0,0,1,3.831-5.947c.128-.108.252-.212.371-.315a1.443,1.443,0,0,0,.613-1.646c-.141-.382-.523-.837-1.535-.837H54.493a1.41,1.41,0,0,1,0-2.82h5.753Zm-1.1,22.6a1.33,1.33,0,0,0-1.329-1.328h-12.1a1.33,1.33,0,0,0-1.329,1.328v2.052A1.33,1.33,0,0,0,45.713,44.2h12.1a1.33,1.33,0,0,0,1.329-1.328ZM42.342,20.39a3,3,0,0,1-.282-1.268V15.37a3,3,0,0,1,4.495-2.608,3.214,3.214,0,0,1,4.736-.954,3.352,3.352,0,0,1,5.416.077A3.246,3.246,0,0,1,61.878,14.5v1.97a4.169,4.169,0,0,1,2.577,1.919,9.97,9.97,0,0,1,.86,6.209,14.336,14.336,0,0,1-3.054,7.388,25.1,25.1,0,0,0-2.042,3.268,7.1,7.1,0,0,0-.787,2.716,3.275,3.275,0,0,1,1.657,2.846v2.052a3.279,3.279,0,0,1-3.276,3.276h-12.1a3.28,3.28,0,0,1-3.276-3.276V40.817a3.276,3.276,0,0,1,1.692-2.866l.037-2.452a3.85,3.85,0,0,0-.717-2.482c-.972-1.618-2.182-3.63-1.108-12.626Zm-6.91,29.832H48.091a.973.973,0,1,0,0-1.947H35.432a.973.973,0,1,0,0,1.947Zm0,4.987H48.091a.973.973,0,1,0,0-1.947H35.432a.973.973,0,1,0,0,1.947Zm21.644-5.96a.973.973,0,0,0,.973.973H70.709a.973.973,0,1,0,0-1.947H58.05A.973.973,0,0,0,57.076,49.249Zm.973,5.96H70.709a.973.973,0,1,0,0-1.947H58.05a.973.973,0,1,0,0,1.947Zm-27.6-17.641a.973.973,0,0,1,.973.973V58.1H49.145a5.485,5.485,0,0,1,2.952.868V47.726a.973.973,0,0,1,1.947,0V58.97A5.482,5.482,0,0,1,57,58.1H74.714V38.541a.974.974,0,0,1,1.947,0V59.075a.973.973,0,0,1-.973.973H57a3.568,3.568,0,0,0-3.081,1.795.975.975,0,0,1-1.689,0,3.566,3.566,0,0,0-3.081-1.795H30.453a.974.974,0,0,1-.974-.973V38.541a.974.974,0,0,1,.974-.973ZM81.186,35.66V63.6a.974.974,0,0,1-.973.973H25.929a.973.973,0,0,1-.973-.973V35.66a.974.974,0,0,1,1.947,0V62.626H79.239V35.66a.973.973,0,1,1,1.947,0Z" transform="translate(0)" fill-rule="evenodd"/>
      </g>
    </g>
  </g>
</svg>
