<svg xmlns="http://www.w3.org/2000/svg" xmlns:xlink="http://www.w3.org/1999/xlink" width="103" height="103" viewBox="0 0 103 103">
  <defs>
    <filter id="Path_978624" x="0" y="0" width="103" height="103" filterUnits="userSpaceOnUse">
      <feOffset dy="3" input="SourceAlpha"/>
      <feGaussianBlur stdDeviation="3" result="blur"/>
      <feFlood flood-opacity="0.161"/>
      <feComposite operator="in" in2="blur"/>
      <feComposite in="SourceGraphic"/>
    </filter>
  </defs>
  <g id="Group_1164933" data-name="Group 1164933" transform="translate(-171 -1409)">
    <g id="Group_1164618" data-name="Group 1164618" transform="translate(180 1415)">
      <g id="Group_1144531" data-name="Group 1144531">
        <g transform="matrix(1, 0, 0, 1, -9, -6)" filter="url(#Path_978624)">
          <g id="Path_978624-2" data-name="Path 978624" transform="translate(9 6)" fill="#f6ecaa">
            <path d="M 42.5 83.5 C 36.96437835693359 83.5 31.59512901306152 82.41617584228516 26.54141235351562 80.27863311767578 C 21.65934181213379 78.21369171142578 17.27447128295898 75.25723266601562 13.50862312316895 71.49137878417969 C 9.742764472961426 67.72553253173828 6.786305904388428 63.34066009521484 4.721364498138428 58.45858764648438 C 2.583823442459106 53.40486907958984 1.5 48.03562164306641 1.5 42.5 C 1.5 36.96437835693359 2.583823442459106 31.59512901306152 4.721364498138428 26.54141235351562 C 6.786305904388428 21.65934181213379 9.742764472961426 17.27447128295898 13.50862312316895 13.50862312316895 C 17.27447128295898 9.742764472961426 21.65934181213379 6.786305904388428 26.54141235351562 4.721364498138428 C 31.59512901306152 2.583823442459106 36.96437835693359 1.5 42.5 1.5 C 48.03562164306641 1.5 53.40486907958984 2.583823442459106 58.45858764648438 4.721364498138428 C 63.34066009521484 6.786305904388428 67.72553253173828 9.742764472961426 71.49137878417969 13.50862312316895 C 75.25723266601562 17.27447128295898 78.21369171142578 21.65934181213379 80.27863311767578 26.54141235351562 C 82.41617584228516 31.59512901306152 83.5 36.96437835693359 83.5 42.5 C 83.5 48.03562164306641 82.41617584228516 53.40486907958984 80.27863311767578 58.45858764648438 C 78.21369171142578 63.34066009521484 75.25723266601562 67.72553253173828 71.49137878417969 71.49137878417969 C 67.72553253173828 75.25723266601562 63.34066009521484 78.21369171142578 58.45858764648438 80.27863311767578 C 53.40486907958984 82.41617584228516 48.03562164306641 83.5 42.5 83.5 Z" stroke="none"/>
            <path d="M 42.5 3 C 37.16621398925781 3 31.99356079101562 4.043960571289062 27.125732421875 6.102882385253906 C 22.42246627807617 8.092185974121094 18.19785308837891 10.94070434570312 14.56928253173828 14.56928253173828 C 10.94070434570312 18.19785308837891 8.092185974121094 22.42246627807617 6.102882385253906 27.125732421875 C 4.043960571289062 31.99356079101562 3 37.16621398925781 3 42.5 C 3 47.83378601074219 4.043960571289062 53.00643920898438 6.102882385253906 57.87425231933594 C 8.092185974121094 62.57753372192383 10.94070434570312 66.80213165283203 14.56928253173828 70.43071746826172 C 18.19786834716797 74.05929565429688 22.42246627807617 76.90781402587891 27.125732421875 78.89711761474609 C 31.99356079101562 80.95603942871094 37.16621398925781 82 42.5 82 C 47.83378601074219 82 53.00642395019531 80.95603942871094 57.87425231933594 78.89711761474609 C 62.57753372192383 76.90781402587891 66.80213165283203 74.05929565429688 70.43071746826172 70.43071746826172 C 74.05929565429688 66.80213165283203 76.90781402587891 62.57753372192383 78.89711761474609 57.87425231933594 C 80.95603942871094 53.00642395019531 82 47.83378601074219 82 42.5 C 82 37.16621398925781 80.95603942871094 31.99356079101562 78.89711761474609 27.125732421875 C 76.90781402587891 22.42246627807617 74.05929565429688 18.19786834716797 70.43071746826172 14.56928253173828 C 66.80213165283203 10.94070434570312 62.57753372192383 8.092185974121094 57.87425231933594 6.102882385253906 C 53.00643920898438 4.043960571289062 47.83378601074219 3 42.5 3 M 42.5 0 C 65.97209167480469 0 85 19.02789306640625 85 42.5 C 85 65.97209167480469 65.97209167480469 85 42.5 85 C 19.02789306640625 85 0 65.97209167480469 0 42.5 C 0 19.02789306640625 19.02789306640625 0 42.5 0 Z" stroke="none" fill="#bcac89"/>
          </g>
        </g>
      </g>
      <g id="swear_2328393" transform="translate(15.028 15.028)">
        <g id="Group_1164397" data-name="Group 1164397" transform="translate(1.854 1.854)">
          <path id="Path_982724" data-name="Path 982724" d="M2.854,2H28.472a.856.856,0,0,1,.854.854V19.369a5.16,5.16,0,0,0-1.708-.29,1.713,1.713,0,0,0-1.708,1.708v1.708H20.787V26.56a1.056,1.056,0,0,1-2,.478l-2.272-4.543H2.854A.856.856,0,0,1,2,21.641V2.854A.856.856,0,0,1,2.854,2Z" transform="translate(-2 -2)" fill="#e6e9ed"/>
          <g id="Group_1164396" data-name="Group 1164396" transform="translate(0 10.247)">
            <path id="Path_982725" data-name="Path 982725" d="M28.832,14v2.562a.856.856,0,0,1-.854.854H22.854A.856.856,0,0,1,22,16.562V14Z" transform="translate(-4.921 -14)" fill="#b27946"/>
            <path id="Path_982726" data-name="Path 982726" d="M12.832,14v2.562a.856.856,0,0,1-.854.854H6.854A.856.856,0,0,1,6,16.562V14Z" transform="translate(-2.584 -14)" fill="#b27946"/>
            <path id="Path_982727" data-name="Path 982727" d="M15.663,34.854V38.27a.856.856,0,0,1-.854.854H2.854A.856.856,0,0,1,2,38.27V34.854A.856.856,0,0,1,2.854,34H14.809A.856.856,0,0,1,15.663,34.854Z" transform="translate(-2 -16.921)" fill="#b27946"/>
            <path id="Path_982728" data-name="Path 982728" d="M15.663,56.854V60.27a.856.856,0,0,1-.854.854H2.854A.856.856,0,0,1,2,60.27V56.854A.856.856,0,0,1,2.854,56H14.809A.856.856,0,0,1,15.663,56.854Z" transform="translate(-2 -20.134)" fill="#b27946"/>
          </g>
          <path id="Path_982729" data-name="Path 982729" d="M14.247,49.393v4.27H4V40H14.247v9.393Z" transform="translate(-2.292 -7.55)" fill="#d3a06c"/>
          <path id="Path_982730" data-name="Path 982730" d="M33.079,46.706v3.416H16V45H31.755l.009-.009A18.268,18.268,0,0,0,33.079,46.706Z" transform="translate(-4.045 -8.279)" fill="#cf9e76"/>
          <path id="Path_982731" data-name="Path 982731" d="M54.787,47V59.809H36V47Z" transform="translate(-6.966 -8.572)" fill="#b4dd7f"/>
          <path id="Path_982732" data-name="Path 982732" d="M52.2,14.809a2.562,2.562,0,0,1,5.124,0V29.147a20.322,20.322,0,0,1-3.416,11.281H35.124a18.269,18.269,0,0,1-1.315-1.716A21.244,21.244,0,0,1,30,26.577v-5.79a1.713,1.713,0,0,1,1.708-1.708,5.16,5.16,0,0,1,1.708.29l1.913,1.213a5.076,5.076,0,0,1,1.5,3.621V7.978a2.562,2.562,0,0,1,5.124,0V4.562a2.562,2.562,0,0,1,5.124,0V7.978a2.562,2.562,0,1,1,5.124,0Z" transform="translate(-6.089 -2)" fill="#f0d0b4"/>
        </g>
        <g id="Group_1164398" data-name="Group 1164398" transform="translate(1 1)">
          <path id="Path_982733" data-name="Path 982733" d="M53.945,14.663a3.419,3.419,0,0,0-3.416-3.416,3.381,3.381,0,0,0-1.708.475V7.832a3.419,3.419,0,0,0-3.416-3.416,3.381,3.381,0,0,0-1.708.475V4.416a3.416,3.416,0,0,0-6.832,0v.475a3.381,3.381,0,0,0-1.708-.475,3.419,3.419,0,0,0-3.416,3.416v12.05a5.989,5.989,0,0,0-1.708-1.217V2.708A1.71,1.71,0,0,0,28.326,1H2.708A1.71,1.71,0,0,0,1,2.708V21.495A1.71,1.71,0,0,0,2.708,23.2H15.843l2.034,4.068a1.909,1.909,0,0,0,3.617-.854V23.2h3.416v3.229a22.142,22.142,0,0,0,3.1,11.288H14.663V35.158a1.71,1.71,0,0,0,1.708-1.708V30.034a1.71,1.71,0,0,0-1.708-1.708H2.708A1.71,1.71,0,0,0,1,30.034V33.45a1.71,1.71,0,0,0,1.708,1.708V47.113A1.71,1.71,0,0,0,1,48.821v3.416a1.71,1.71,0,0,0,1.708,1.708H14.663a1.71,1.71,0,0,0,1.708-1.708V48.821a1.71,1.71,0,0,0-1.708-1.708V44.551H30.034v9.393H50.529V40.522A21.118,21.118,0,0,0,53.945,29ZM19.787,21.495v4.922a.208.208,0,0,1-.382.09L16.9,21.495H2.708V2.708H28.326V18.147a6,6,0,0,0-.854-.068,2.565,2.565,0,0,0-2.562,2.562v.854ZM2.708,30.034H14.663V33.45H2.708Zm11.956,22.2H2.708V48.821H14.663ZM4.416,47.113V35.158h8.539V47.113Zm10.247-4.27V39.428H29.137c.284.392.586.772.9,1.146v2.27Zm17.079,9.393v-11.1H48.821v11.1ZM52.237,29a19.417,19.417,0,0,1-3.025,10.428H31.286a20.439,20.439,0,0,1-4.668-13V20.641a.855.855,0,0,1,.854-.854,4.275,4.275,0,0,1,4.27,4.27V29.18H33.45V7.832a1.708,1.708,0,1,1,3.416,0V24.316h1.708V4.416a1.708,1.708,0,1,1,3.416,0V24.057H43.7V7.832a1.708,1.708,0,1,1,3.416,0V24.057h1.708V14.663a1.708,1.708,0,1,1,3.416,0Z" transform="translate(-1 -1)"/>
          <path id="Path_982734" data-name="Path 982734" d="M18.663,15.247a1.71,1.71,0,0,0,1.708,1.708h5.124A1.71,1.71,0,0,0,27.2,15.247V12.427L23.39,6.708H16.955V5H15.247V6.708H8.813L5,12.427v2.821a1.71,1.71,0,0,0,1.708,1.708h5.124a1.71,1.71,0,0,0,1.708-1.708V12.427L10.866,8.416h4.382V18.663H11.832v1.708h8.539V18.663H16.955V8.416h4.382l-2.674,4.011Zm-11.955,0V13.539h5.124v1.708Zm4.382-3.416H7.449L9.27,9.1Zm9.281,3.416V13.539h5.124v1.708ZM22.933,9.1l1.821,2.73h-3.64Z" transform="translate(-1.584 -1.584)"/>
        </g>
      </g>
    </g>
  </g>
</svg>
