<svg xmlns="http://www.w3.org/2000/svg" xmlns:xlink="http://www.w3.org/1999/xlink" width="103" height="103" viewBox="0 0 103 103">
  <defs>
    <filter id="Path_978624" x="0" y="0" width="103" height="103" filterUnits="userSpaceOnUse">
      <feOffset dy="3" input="SourceAlpha"/>
      <feGaussianBlur stdDeviation="3" result="blur"/>
      <feFlood flood-opacity="0.161"/>
      <feComposite operator="in" in2="blur"/>
      <feComposite in="SourceGraphic"/>
    </filter>
  </defs>
  <g id="Group_1164938" data-name="Group 1164938" transform="translate(-171 -3652)">
    <g id="Group_1164852" data-name="Group 1164852" transform="translate(0 62)">
      <g id="Group_1164627" data-name="Group 1164627" transform="translate(180 3596)">
        <g id="Group_1144531" data-name="Group 1144531">
          <g transform="matrix(1, 0, 0, 1, -9, -6)" filter="url(#Path_978624)">
            <g id="Path_978624-2" data-name="Path 978624" transform="translate(9 6)" fill="#f6ecaa">
              <path d="M 42.5 83.5 C 36.96437835693359 83.5 31.59512901306152 82.41617584228516 26.54141235351562 80.27863311767578 C 21.65934181213379 78.21369171142578 17.27447128295898 75.25723266601562 13.50862312316895 71.49137878417969 C 9.742764472961426 67.72553253173828 6.786305904388428 63.34066009521484 4.721364498138428 58.45858764648438 C 2.583823442459106 53.40486907958984 1.5 48.03562164306641 1.5 42.5 C 1.5 36.96437835693359 2.583823442459106 31.59512901306152 4.721364498138428 26.54141235351562 C 6.786305904388428 21.65934181213379 9.742764472961426 17.27447128295898 13.50862312316895 13.50862312316895 C 17.27447128295898 9.742764472961426 21.65934181213379 6.786305904388428 26.54141235351562 4.721364498138428 C 31.59512901306152 2.583823442459106 36.96437835693359 1.5 42.5 1.5 C 48.03562164306641 1.5 53.40486907958984 2.583823442459106 58.45858764648438 4.721364498138428 C 63.34066009521484 6.786305904388428 67.72553253173828 9.742764472961426 71.49137878417969 13.50862312316895 C 75.25723266601562 17.27447128295898 78.21369171142578 21.65934181213379 80.27863311767578 26.54141235351562 C 82.41617584228516 31.59512901306152 83.5 36.96437835693359 83.5 42.5 C 83.5 48.03562164306641 82.41617584228516 53.40486907958984 80.27863311767578 58.45858764648438 C 78.21369171142578 63.34066009521484 75.25723266601562 67.72553253173828 71.49137878417969 71.49137878417969 C 67.72553253173828 75.25723266601562 63.34066009521484 78.21369171142578 58.45858764648438 80.27863311767578 C 53.40486907958984 82.41617584228516 48.03562164306641 83.5 42.5 83.5 Z" stroke="none"/>
              <path d="M 42.5 3 C 37.16621398925781 3 31.99356079101562 4.043960571289062 27.125732421875 6.102882385253906 C 22.42246627807617 8.092185974121094 18.19785308837891 10.94070434570312 14.56928253173828 14.56928253173828 C 10.94070434570312 18.19785308837891 8.092185974121094 22.42246627807617 6.102882385253906 27.125732421875 C 4.043960571289062 31.99356079101562 3 37.16621398925781 3 42.5 C 3 47.83378601074219 4.043960571289062 53.00643920898438 6.102882385253906 57.87425231933594 C 8.092185974121094 62.57753372192383 10.94070434570312 66.80213165283203 14.56928253173828 70.43071746826172 C 18.19786834716797 74.05929565429688 22.42246627807617 76.90781402587891 27.125732421875 78.89711761474609 C 31.99356079101562 80.95603942871094 37.16621398925781 82 42.5 82 C 47.83378601074219 82 53.00642395019531 80.95603942871094 57.87425231933594 78.89711761474609 C 62.57753372192383 76.90781402587891 66.80213165283203 74.05929565429688 70.43071746826172 70.43071746826172 C 74.05929565429688 66.80213165283203 76.90781402587891 62.57753372192383 78.89711761474609 57.87425231933594 C 80.95603942871094 53.00642395019531 82 47.83378601074219 82 42.5 C 82 37.16621398925781 80.95603942871094 31.99356079101562 78.89711761474609 27.125732421875 C 76.90781402587891 22.42246627807617 74.05929565429688 18.19786834716797 70.43071746826172 14.56928253173828 C 66.80213165283203 10.94070434570312 62.57753372192383 8.092185974121094 57.87425231933594 6.102882385253906 C 53.00643920898438 4.043960571289062 47.83378601074219 3 42.5 3 M 42.5 0 C 65.97209167480469 0 85 19.02789306640625 85 42.5 C 85 65.97209167480469 65.97209167480469 85 42.5 85 C 19.02789306640625 85 0 65.97209167480469 0 42.5 C 0 19.02789306640625 19.02789306640625 0 42.5 0 Z" stroke="none" fill="#bcac89"/>
            </g>
          </g>
        </g>
      </g>
      <g id="swear_2328393" transform="translate(199 3613.953)">
        <g id="Group_1164397" data-name="Group 1164397" transform="translate(1.776 1.776)">
          <path id="Path_982724" data-name="Path 982724" d="M2.776,2H26.047a.778.778,0,0,1,.776.776v15a4.687,4.687,0,0,0-1.551-.264,1.556,1.556,0,0,0-1.551,1.551v1.551H19.066v3.692a.959.959,0,0,1-1.815.434l-2.063-4.127H2.776A.778.778,0,0,1,2,19.841V2.776A.778.778,0,0,1,2.776,2Z" transform="translate(-2 -2)" fill="#e6e9ed"/>
          <g id="Group_1164396" data-name="Group 1164396" transform="translate(0 9.308)">
            <path id="Path_982725" data-name="Path 982725" d="M28.206,14v2.327a.778.778,0,0,1-.776.776H22.776A.778.778,0,0,1,22,16.327V14Z" transform="translate(-6.486 -14)" fill="#b27946"/>
            <path id="Path_982726" data-name="Path 982726" d="M12.206,14v2.327a.778.778,0,0,1-.776.776H6.776A.778.778,0,0,1,6,16.327V14Z" transform="translate(-2.897 -14)" fill="#b27946"/>
            <path id="Path_982727" data-name="Path 982727" d="M14.411,34.776v3.1a.778.778,0,0,1-.776.776H2.776A.778.778,0,0,1,2,37.879v-3.1A.778.778,0,0,1,2.776,34h10.86A.778.778,0,0,1,14.411,34.776Z" transform="translate(-2 -18.486)" fill="#b27946"/>
            <path id="Path_982728" data-name="Path 982728" d="M14.411,56.776v3.1a.778.778,0,0,1-.776.776H2.776A.778.778,0,0,1,2,59.879v-3.1A.778.778,0,0,1,2.776,56h10.86A.778.778,0,0,1,14.411,56.776Z" transform="translate(-2 -23.42)" fill="#b27946"/>
          </g>
          <path id="Path_982729" data-name="Path 982729" d="M13.308,48.533v3.879H4V40h9.308v8.533Z" transform="translate(-2.449 -10.523)" fill="#d3a06c"/>
          <path id="Path_982730" data-name="Path 982730" d="M31.514,46.549v3.1H16V45H30.312l.008-.008A16.594,16.594,0,0,0,31.514,46.549Z" transform="translate(-5.14 -11.642)" fill="#cf9e76"/>
          <path id="Path_982731" data-name="Path 982731" d="M53.066,47V58.636H36V47Z" transform="translate(-9.626 -12.093)" fill="#b4dd7f"/>
          <path id="Path_982732" data-name="Path 982732" d="M50.168,13.636a2.327,2.327,0,0,1,4.654,0V26.66a18.46,18.46,0,0,1-3.1,10.247H34.654a16.594,16.594,0,0,1-1.195-1.559A19.3,19.3,0,0,1,30,24.325V19.066a1.556,1.556,0,0,1,1.551-1.551,4.687,4.687,0,0,1,1.551.264l1.738,1.1a4.611,4.611,0,0,1,1.365,3.289V7.43a2.327,2.327,0,0,1,4.654,0v-3.1a2.327,2.327,0,0,1,4.654,0v3.1a2.327,2.327,0,1,1,4.654,0Z" transform="translate(-8.28 -2)" fill="#f0d0b4"/>
        </g>
        <g id="Group_1164398" data-name="Group 1164398" transform="translate(1 1)">
          <path id="Path_982733" data-name="Path 982733" d="M49.094,13.411a3.106,3.106,0,0,0-3.1-3.1,3.071,3.071,0,0,0-1.551.431V7.206a3.106,3.106,0,0,0-3.1-3.1,3.071,3.071,0,0,0-1.551.431V4.1a3.1,3.1,0,0,0-6.206,0v.431A3.071,3.071,0,0,0,32.028,4.1a3.106,3.106,0,0,0-3.1,3.1V18.152a5.44,5.44,0,0,0-1.551-1.105V2.551A1.553,1.553,0,0,0,25.823,1H2.551A1.553,1.553,0,0,0,1,2.551V19.617a1.553,1.553,0,0,0,1.551,1.551H14.483l1.848,3.7a1.735,1.735,0,0,0,3.286-.776v-2.92h3.1V24.1a20.113,20.113,0,0,0,2.817,10.254H13.411V32.028a1.553,1.553,0,0,0,1.551-1.551v-3.1a1.553,1.553,0,0,0-1.551-1.551H2.551A1.553,1.553,0,0,0,1,27.374v3.1a1.553,1.553,0,0,0,1.551,1.551v10.86A1.553,1.553,0,0,0,1,44.44v3.1a1.553,1.553,0,0,0,1.551,1.551h10.86a1.553,1.553,0,0,0,1.551-1.551v-3.1a1.553,1.553,0,0,0-1.551-1.551V40.561H27.374v8.533H45.991V36.9a19.183,19.183,0,0,0,3.1-10.466ZM18.066,19.617v4.471a.189.189,0,0,1-.347.081l-2.277-4.553H2.551V2.551H25.823V16.576a5.45,5.45,0,0,0-.776-.062,2.33,2.33,0,0,0-2.327,2.327v.776ZM2.551,27.374h10.86v3.1H2.551ZM13.412,47.542H2.551v-3.1h10.86ZM4.1,42.888V32.028H11.86v10.86Zm9.308-3.879v-3.1H26.559c.258.356.532.7.815,1.041V39.01Zm15.514,8.533V37.457H44.44V47.542ZM47.542,26.435a17.638,17.638,0,0,1-2.748,9.472H28.511a18.566,18.566,0,0,1-4.24-11.8v-5.26a.776.776,0,0,1,.776-.776,3.883,3.883,0,0,1,3.879,3.879V26.6h1.551V7.206a1.551,1.551,0,0,1,3.1,0V22.18h1.551V4.1a1.551,1.551,0,1,1,3.1,0V21.944h1.551V7.206a1.551,1.551,0,1,1,3.1,0V21.944H44.44V13.411a1.551,1.551,0,0,1,3.1,0Z" transform="translate(-1 -1)"/>
          <path id="Path_982734" data-name="Path 982734" d="M17.411,14.308a1.553,1.553,0,0,0,1.551,1.551h4.654a1.553,1.553,0,0,0,1.551-1.551V11.746L21.7,6.551H15.86V5H14.308V6.551H8.464L5,11.746v2.562A1.553,1.553,0,0,0,6.551,15.86h4.654a1.553,1.553,0,0,0,1.551-1.551V11.746L10.328,8.1h3.98v9.308h-3.1v1.551h7.757V17.411h-3.1V8.1h3.98l-2.429,3.643Zm-10.86,0V12.757h4.654v1.551Zm3.981-3.1H7.225l1.654-2.48Zm8.43,3.1V12.757h4.654v1.551ZM21.29,8.726l1.654,2.48H19.637Z" transform="translate(-1.897 -1.897)"/>
        </g>
      </g>
    </g>
  </g>
</svg>
