<svg xmlns="http://www.w3.org/2000/svg" xmlns:xlink="http://www.w3.org/1999/xlink" width="103" height="103" viewBox="0 0 103 103">
  <defs>
    <filter id="Path_978624" x="0" y="0" width="103" height="103" filterUnits="userSpaceOnUse">
      <feOffset dy="3" input="SourceAlpha"/>
      <feGaussianBlur stdDeviation="3" result="blur"/>
      <feFlood flood-opacity="0.161"/>
      <feComposite operator="in" in2="blur"/>
      <feComposite in="SourceGraphic"/>
    </filter>
  </defs>
  <g id="Group_1164935" data-name="Group 1164935" transform="translate(-171 -2303)">
    <g id="Group_1164619" data-name="Group 1164619" transform="translate(180 2309)">
      <g id="Group_1144531" data-name="Group 1144531">
        <g transform="matrix(1, 0, 0, 1, -9, -6)" filter="url(#Path_978624)">
          <g id="Path_978624-2" data-name="Path 978624" transform="translate(9 6)" fill="#f6ecaa">
            <path d="M 42.5 83.5 C 36.96437835693359 83.5 31.59512901306152 82.41617584228516 26.54141235351562 80.27863311767578 C 21.65934181213379 78.21369171142578 17.27447128295898 75.25723266601562 13.50862312316895 71.49137878417969 C 9.742764472961426 67.72553253173828 6.786305904388428 63.34066009521484 4.721364498138428 58.45858764648438 C 2.583823442459106 53.40486907958984 1.5 48.03562164306641 1.5 42.5 C 1.5 36.96437835693359 2.583823442459106 31.59512901306152 4.721364498138428 26.54141235351562 C 6.786305904388428 21.65934181213379 9.742764472961426 17.27447128295898 13.50862312316895 13.50862312316895 C 17.27447128295898 9.742764472961426 21.65934181213379 6.786305904388428 26.54141235351562 4.721364498138428 C 31.59512901306152 2.583823442459106 36.96437835693359 1.5 42.5 1.5 C 48.03562164306641 1.5 53.40486907958984 2.583823442459106 58.45858764648438 4.721364498138428 C 63.34066009521484 6.786305904388428 67.72553253173828 9.742764472961426 71.49137878417969 13.50862312316895 C 75.25723266601562 17.27447128295898 78.21369171142578 21.65934181213379 80.27863311767578 26.54141235351562 C 82.41617584228516 31.59512901306152 83.5 36.96437835693359 83.5 42.5 C 83.5 48.03562164306641 82.41617584228516 53.40486907958984 80.27863311767578 58.45858764648438 C 78.21369171142578 63.34066009521484 75.25723266601562 67.72553253173828 71.49137878417969 71.49137878417969 C 67.72553253173828 75.25723266601562 63.34066009521484 78.21369171142578 58.45858764648438 80.27863311767578 C 53.40486907958984 82.41617584228516 48.03562164306641 83.5 42.5 83.5 Z" stroke="none"/>
            <path d="M 42.5 3 C 37.16621398925781 3 31.99356079101562 4.043960571289062 27.125732421875 6.102882385253906 C 22.42246627807617 8.092185974121094 18.19785308837891 10.94070434570312 14.56928253173828 14.56928253173828 C 10.94070434570312 18.19785308837891 8.092185974121094 22.42246627807617 6.102882385253906 27.125732421875 C 4.043960571289062 31.99356079101562 3 37.16621398925781 3 42.5 C 3 47.83378601074219 4.043960571289062 53.00643920898438 6.102882385253906 57.87425231933594 C 8.092185974121094 62.57753372192383 10.94070434570312 66.80213165283203 14.56928253173828 70.43071746826172 C 18.19786834716797 74.05929565429688 22.42246627807617 76.90781402587891 27.125732421875 78.89711761474609 C 31.99356079101562 80.95603942871094 37.16621398925781 82 42.5 82 C 47.83378601074219 82 53.00642395019531 80.95603942871094 57.87425231933594 78.89711761474609 C 62.57753372192383 76.90781402587891 66.80213165283203 74.05929565429688 70.43071746826172 70.43071746826172 C 74.05929565429688 66.80213165283203 76.90781402587891 62.57753372192383 78.89711761474609 57.87425231933594 C 80.95603942871094 53.00642395019531 82 47.83378601074219 82 42.5 C 82 37.16621398925781 80.95603942871094 31.99356079101562 78.89711761474609 27.125732421875 C 76.90781402587891 22.42246627807617 74.05929565429688 18.19786834716797 70.43071746826172 14.56928253173828 C 66.80213165283203 10.94070434570312 62.57753372192383 8.092185974121094 57.87425231933594 6.102882385253906 C 53.00643920898438 4.043960571289062 47.83378601074219 3 42.5 3 M 42.5 0 C 65.97209167480469 0 85 19.02789306640625 85 42.5 C 85 65.97209167480469 65.97209167480469 85 42.5 85 C 19.02789306640625 85 0 65.97209167480469 0 42.5 C 0 19.02789306640625 19.02789306640625 0 42.5 0 Z" stroke="none" fill="#bcac89"/>
          </g>
        </g>
      </g>
      <g id="learning-support_18531616" transform="translate(-9.519 10.783)">
        <path id="Path_982930" data-name="Path 982930" d="M174.354,72.173h20.24V83.724h-20.24Z" transform="translate(-132.451 -63.239)" fill="#7c441a"/>
        <path id="Path_982931" data-name="Path 982931" d="M137.587,8l16.751,5.744-16.751,5.744-16.751-5.744,2-.685Z" transform="translate(-85.566 -7.017)" fill="#aa5d24" fill-rule="evenodd"/>
        <path id="Path_982932" data-name="Path 982932" d="M116.386,166h17.3v18.349h-17.3Z" transform="translate(-81.667 -145.437)" fill="#a9a9ae"/>
        <path id="Path_982933" data-name="Path 982933" d="M142.1,129.088c4.708-.59,9.412-.776,14.117,2.3v20.317c-4.567-2.375-9.247-3.559-14.117-2.621Z" transform="translate(-104.194 -112.794)" fill="#eceff1" fill-rule="evenodd"/>
        <path id="Path_982934" data-name="Path 982934" d="M255.993,166H273.3v18.349H255.993Z" transform="translate(-203.972 -145.437)" fill="#89898d"/>
        <path id="Path_982935" data-name="Path 982935" d="M270.113,129.088c-4.708-.59-9.412-.776-14.12,2.3v20.317c4.571-2.375,9.247-3.559,14.12-2.621Z" transform="translate(-203.972 -112.794)" fill="#bfc2c3" fill-rule="evenodd"/>
        <path id="Path_982936" data-name="Path 982936" d="M341.282,281.1l-4.156,10.944c-3.822,5.2-6.471,2.269-6.935,8.836h-8.463c.692-4.975,2.024-8.1,3.833-9.826l6.067-4.658a1.9,1.9,0,0,1,2.407.077l2.7-7.1a2.433,2.433,0,0,1,4.549,1.728Z" transform="translate(-261.56 -243.382)" fill="#feb69e" fill-rule="evenodd"/>
        <path id="Path_982937" data-name="Path 982937" d="M309.964,463.978h11.917v4.961H309.964Z" transform="translate(-251.254 -406.485)" fill="#3abeff"/>
        <path id="Path_982938" data-name="Path 982938" d="M31.372,281.1l4.16,10.944c3.822,5.2,6.471,2.27,6.932,8.836h8.463c-.692-4.975-2.02-8.1-3.83-9.826l-6.067-4.658a1.91,1.91,0,0,0-2.41.077l-2.694-7.1a2.435,2.435,0,0,0-4.554,1.728Z" transform="translate(-7.052 -243.382)" fill="#feb69e" fill-rule="evenodd"/>
        <path id="Path_982939" data-name="Path 982939" d="M105.9,463.978h11.917v4.961H105.9Z" transform="translate(-72.479 -406.485)" fill="#3abeff"/>
        <path id="Path_982940" data-name="Path 982940" d="M352.257,134.163v15.448a17.527,17.527,0,0,1,2.189.281v-20c-.731-.091-1.458-.172-2.189-.235Z" transform="translate(-288.305 -113.601)" fill="#bfc2c3" fill-rule="evenodd"/>
        <path id="Path_982941" data-name="Path 982941" d="M388.853,463.978h2.14v4.961h-2.14Z" transform="translate(-320.365 -406.485)" fill="#2f9acf"/>
        <g id="Group_1164539" data-name="Group 1164539" transform="translate(48.03 0.98)">
          <path id="Path_982942" data-name="Path 982942" d="M387.5,280.746l-4.156,10.944c-3.822,5.2-6.471,2.27-6.935,8.836h1.676c.464-6.566,3.113-3.64,6.935-8.836l4.156-10.944a2.432,2.432,0,0,0-3.109-3.148l.025.011A2.436,2.436,0,0,1,387.5,280.746Z" transform="translate(-357.495 -244.054)" fill="#ce9480" fill-rule="evenodd"/>
          <path id="Path_982943" data-name="Path 982943" d="M315.633,73.618v6.1a22.12,22.12,0,0,1,2.73-.077v-6.96Z" transform="translate(-304.25 -64.666)" fill="#653715" fill-rule="evenodd"/>
          <path id="Path_982944" data-name="Path 982944" d="M223.791,9.367l16.751,5.741,3.991-1.367L227.782,8Z" transform="translate(-223.791 -7.997)" fill="#8a4c1d" fill-rule="evenodd"/>
        </g>
        <path id="Path_982945" data-name="Path 982945" d="M78.664,33.649a3.433,3.433,0,0,0-4.423,1.984l-2.307,6.08a2.9,2.9,0,0,0-2.474.508L63.392,46.88a1.011,1.011,0,0,0-.08.069c-1.958,1.867-3.27,5-4,9.552h-.607a.992.992,0,0,0-.993.992v4.96a.993.993,0,0,0,.993.993H70.622a.992.992,0,0,0,.993-.992v-4.96a.992.992,0,0,0-.992-.992h-.9c.3-2.364.978-2.741,2.276-3.463a12.147,12.147,0,0,0,4.364-3.793,1,1,0,0,0,.128-.235l4.16-10.944a3.429,3.429,0,0,0-1.986-4.416ZM69.63,61.461H59.7V58.486H69.63Zm9.164-24.1L74.683,48.176a10.1,10.1,0,0,1-3.65,3.127c-1.762.981-2.908,1.794-3.306,5.2h-6.4c.655-3.861,1.77-6.576,3.32-8.081l6.023-4.625a.913.913,0,0,1,1.012-.062.988.988,0,0,0,.147.147c.067.054.119.1.15.129a.882.882,0,0,1,.147.618.908.908,0,0,1-.349.611L66.224,49.5a.992.992,0,1,0,1.208,1.575l5.551-4.258a2.881,2.881,0,0,0,1.109-1.933,2.852,2.852,0,0,0-.481-2L76.1,36.339a1.443,1.443,0,0,1,2.7,1.022ZM45.331,56.5h-.6c-.729-4.553-2.042-7.683-4-9.552a1.012,1.012,0,0,0-.081-.069l-6.067-4.658a2.9,2.9,0,0,0-2.471-.508l-2.311-6.082a3.426,3.426,0,1,0-6.4,2.435L27.546,49.01a.994.994,0,0,0,.129.235,12.149,12.149,0,0,0,4.364,3.793c1.3.722,1.974,1.1,2.277,3.463h-.9a.992.992,0,0,0-.993.993v4.961a.993.993,0,0,0,.993.993H45.331a.992.992,0,0,0,.992-.993v-4.96a.992.992,0,0,0-.993-.992ZM33,51.3a10.093,10.093,0,0,1-3.651-3.127L25.245,37.36a1.441,1.441,0,1,1,2.695-1.022l2.487,6.544a2.9,2.9,0,0,0,.627,3.932L36.6,51.071A.992.992,0,1,0,37.812,49.5l-5.551-4.258a.908.908,0,0,1-.349-.611.882.882,0,0,1,.147-.618c.031-.029.083-.074.15-.129a.992.992,0,0,0,.144-.144.909.909,0,0,1,1.014.059l6.023,4.625c1.553,1.506,2.669,4.221,3.324,8.081h-6.4c-.4-3.4-1.546-4.218-3.309-5.2ZM44.338,61.461H34.406V58.486h9.932ZM49,30.955a.992.992,0,0,1-1.3.522,11.863,11.863,0,0,0-5.792-.759.993.993,0,0,1-.15-1.979,13.98,13.98,0,0,1,6.722.913.993.993,0,0,1,.523,1.3Zm6.034-3.8a.993.993,0,0,1,.521-1.3,13.949,13.949,0,0,1,6.724-.914.993.993,0,1,1-.15,1.979,11.83,11.83,0,0,0-5.79.758.992.992,0,0,1-1.3-.521ZM63.194,29.8a.993.993,0,0,1-1.065.915,11.861,11.861,0,0,0-5.792.759.993.993,0,0,1-.781-1.825,13.735,13.735,0,0,1,6.722-.913.993.993,0,0,1,.915,1.065Zm7.122,9.108V20.563a.992.992,0,0,0-.992-.992H67.129V16.294a.992.992,0,0,0-.869-.985c-1.009-.127-2.056-.24-3.129-.3v-5.3l5.962-2.045a.993.993,0,0,0,0-1.878L52.342.041a1,1,0,0,0-.644,0L34.947,5.785a.992.992,0,0,0,0,1.878l1.564.536v5.7a.992.992,0,1,0,1.985,0V8.88l2.41.826v5.3c-1.073.063-2.119.176-3.129.3a.992.992,0,0,0-.869.985V19.57H34.714a.992.992,0,0,0-.993.993V38.912a.992.992,0,0,0,.993.992H69.323A.992.992,0,0,0,70.316,38.912ZM38.329,6.724l13.691-4.7L65.711,6.724,61.858,8.045c-.025.007-.048.016-.072.025L52.02,11.418,42.2,8.05l-.005,0Zm-2.623,31.2V21.555h1.2V36.291a.992.992,0,0,0,1.18.975,18.073,18.073,0,0,1,9.027.654Zm15.321-.6a23.18,23.18,0,0,0-9.756-2.346,18.771,18.771,0,0,0-2.383.152l0-17.954c.974-.11,1.961-.2,2.957-.228l.049,0a.994.994,0,0,0,.109-.006,15.959,15.959,0,0,1,9.02,2.2Zm.992-19.9a17.594,17.594,0,0,0-9.129-2.466V10.387l8.807,3.02a.992.992,0,0,0,.644,0l8.8-3.019v4.568a17.582,17.582,0,0,0-9.126,2.466Zm.993,1.72a15.948,15.948,0,0,1,9.017-2.2,1.013,1.013,0,0,0,.109.006l.048,0c1,.031,1.983.118,2.958.228V35.127A21.9,21.9,0,0,0,53.012,37.32ZM68.33,37.92H56.921a18.055,18.055,0,0,1,9.027-.654.993.993,0,0,0,1.18-.975V21.555h1.2ZM55.036,23.353a.992.992,0,0,1,.521-1.3,13.647,13.647,0,0,1,6.725-.914.993.993,0,1,1-.153,1.979,11.773,11.773,0,0,0-5.789.759.992.992,0,0,1-1.3-.521ZM49,27.155a.992.992,0,0,1-1.3.521,11.828,11.828,0,0,0-5.791-.758.993.993,0,1,1-.15-1.979,13.954,13.954,0,0,1,6.724.914A.992.992,0,0,1,49,27.155Zm-7.246-6.019a13.645,13.645,0,0,1,6.725.914.992.992,0,1,1-.783,1.824,11.772,11.772,0,0,0-5.789-.759.993.993,0,1,1-.153-1.979Z" transform="translate(0 0)"/>
      </g>
    </g>
  </g>
</svg>
