<svg xmlns="http://www.w3.org/2000/svg" xmlns:xlink="http://www.w3.org/1999/xlink" width="37.678" height="37.678" viewBox="0 0 37.678 37.678">
  <defs>
    <clipPath id="clip-path">
      <path id="path2964" d="M0-682.665H37.678v37.678H0Z" transform="translate(0 682.665)" fill="#0b0a0a"/>
    </clipPath>
  </defs>
  <g id="Group_1164915" data-name="Group 1164915" transform="translate(-207 -6664.854)">
    <g id="star_1527547" transform="translate(207 6664.852)">
      <g id="g2958" transform="translate(0 0.002)">
        <g id="g2960">
          <g id="g2962" clip-path="url(#clip-path)">
            <g id="g2968" transform="translate(0.89 11.757)">
              <path id="path2970" d="M-137.813-428.26l.023-2.478a2.021,2.021,0,0,0-.509-1.356l-6.438-7.26a4.02,4.02,0,0,1-1.012-2.618l-.115-9.609a1.676,1.676,0,0,1,1.663-1.7h.012a1.677,1.677,0,0,1,1.672,1.559l.506,7.164a2.463,2.463,0,0,0,.643,1.492l4.239,4.612a1.3,1.3,0,0,0,1.763.142,1.3,1.3,0,0,0,.5-1.024,1.3,1.3,0,0,0-.338-.874l-3.664-4.039a1.4,1.4,0,0,1,.015-1.9,1.4,1.4,0,0,1,1.025-.444,1.4,1.4,0,0,1,1.005.423l6.085,6.233c.046.047.089.093.133.14a5.1,5.1,0,0,1,1.2,4.348l-1.312,7.19Z" transform="translate(145.863 453.278)" fill="none" stroke="#000" stroke-linecap="round" stroke-linejoin="round" stroke-miterlimit="10" stroke-width="1.5"/>
            </g>
            <g id="g2972" transform="translate(20.388 11.758)">
              <path id="path2974" d="M-234.472-271.619l1.723-1.944a4.014,4.014,0,0,0,1.011-2.617l.115-9.609a1.676,1.676,0,0,0-1.663-1.7h-.012a1.678,1.678,0,0,0-1.672,1.559l-.505,7.164a2.468,2.468,0,0,1-.643,1.492l-4.24,4.612a1.3,1.3,0,0,1-1.763.142,1.3,1.3,0,0,1-.5-1.024,1.3,1.3,0,0,1,.338-.874l3.664-4.039a1.406,1.406,0,0,0-.014-1.9,1.4,1.4,0,0,0-1.026-.444,1.4,1.4,0,0,0-1.005.423l-6.085,6.233c-.045.047-.089.093-.132.14a5.1,5.1,0,0,0-1.2,4.348l1.313,7.19h7.1l-.023-2.478a2.022,2.022,0,0,1,.51-1.356l3.336-3.762" transform="translate(248.169 287.486)" fill="none" stroke="#000" stroke-linecap="round" stroke-linejoin="round" stroke-miterlimit="10" stroke-width="1.5"/>
            </g>
            <g id="g2976" transform="translate(10.02 1.398)">
              <path id="path2978" d="M-8.018-136.32a1.545,1.545,0,0,1,.856-2.636l3.443-.5a1.545,1.545,0,0,0,1.164-.845l1.54-3.12a1.545,1.545,0,0,1,2.772,0L3.3-140.3a1.545,1.545,0,0,0,1.164.845l3.443.5a1.545,1.545,0,0,1,.857,2.636l-2.492,2.429a1.545,1.545,0,0,0-.444,1.368l.588,3.43a1.545,1.545,0,0,1-2.242,1.629l-3.08-1.619a1.545,1.545,0,0,0-1.438,0l-3.08,1.619a1.545,1.545,0,0,1-2.242-1.629l.588-3.43a1.545,1.545,0,0,0-.444-1.368l-1.165-1.136" transform="translate(8.486 144.284)" fill="none" stroke="#000" stroke-linecap="round" stroke-linejoin="round" stroke-miterlimit="10" stroke-width="1.5"/>
            </g>
            <g id="g2980" transform="translate(28.15 0.716)">
              <path id="path2982" d="M0-53.248l1.325-3.111" transform="translate(0 56.359)" fill="none" stroke="#000" stroke-linecap="round" stroke-linejoin="round" stroke-miterlimit="10" stroke-width="1.5"/>
            </g>
            <g id="g2984" transform="translate(30.579 5.225)">
              <path id="path2986" d="M0-18.9,3.385-20" transform="translate(0 20)" fill="none" stroke="#000" stroke-linecap="round" stroke-linejoin="round" stroke-miterlimit="10" stroke-width="1.5"/>
            </g>
            <g id="g2988" transform="translate(29.99 10.082)">
              <path id="path2990" d="M0,0,2.281.809" fill="none" stroke="#000" stroke-linecap="round" stroke-linejoin="round" stroke-miterlimit="10" stroke-width="1.5"/>
            </g>
            <g id="g2992" transform="translate(8.281 0.716)">
              <path id="path2994" d="M-22.675-53.248-24-56.359" transform="translate(24 56.359)" fill="none" stroke="#000" stroke-linecap="round" stroke-linejoin="round" stroke-miterlimit="10" stroke-width="1.5"/>
            </g>
            <g id="g2996" transform="translate(3.792 5.225)">
              <path id="path2998" d="M-57.948-18.9-61.333-20" transform="translate(61.333 20)" fill="none" stroke="#000" stroke-linecap="round" stroke-linejoin="round" stroke-miterlimit="10" stroke-width="1.5"/>
            </g>
            <g id="g3000" transform="translate(5.485 10.082)">
              <path id="path3002" d="M-39.052,0l-2.281.809" transform="translate(41.333)" fill="none" stroke="#000" stroke-linecap="round" stroke-linejoin="round" stroke-miterlimit="10" stroke-width="1.5"/>
            </g>
          </g>
        </g>
      </g>
    </g>
  </g>
</svg>
